Jost-SemiBold.ufo
<glyph name="exclam" format="2">
  <advance width="330"/>
  <unicode hex="0021"/>
  <outline>
    <contour>
      <point x="85" y="700" type="line"/>
      <point x="245" y="700" type="line"/>
      <point x="217" y="222" type="line"/>
      <point x="114" y="222" type="line"/>
    </contour>
    <contour>
      <point x="83" y="55" type="curve" smooth="yes"/>
      <point x="83" y="99"/>
      <point x="118" y="132"/>
      <point x="165" y="132" type="curve" smooth="yes"/>
      <point x="212" y="132"/>
      <point x="247" y="99"/>
      <point x="247" y="55" type="curve" smooth="yes"/>
      <point x="247" y="11"/>
      <point x="212" y="-21"/>
      <point x="165" y="-21" type="curve" smooth="yes"/>
      <point x="118" y="-21"/>
      <point x="83" y="11"/>
    </contour>
  </outline>
</glyph>
<glyph name="dollar" format="2">
  <advance width="609"/>
  <unicode hex="0024"/>
  <outline>
    <contour>
      <point x="261" y="818" type="line"/>
      <point x="370" y="818" type="line"/>
      <point x="365" y="646" type="line"/>
      <point x="265" y="646" type="line"/>
    </contour>
    <contour>
      <point x="265" y="58" type="line"/>
      <point x="365" y="58" type="line"/>
      <point x="369" y="-112" type="line"/>
      <point x="261" y="-112" type="line"/>
    </contour>
    <contour>
      <point x="446" y="497" type="line"/>
      <point x="416" y="555"/>
      <point x="377" y="599"/>
      <point x="317" y="599" type="curve" smooth="yes"/>
      <point x="254" y="599"/>
      <point x="227" y="569"/>
      <point x="227" y="525" type="curve" smooth="yes"/>
      <point x="227" y="461"/>
      <point x="302" y="440"/>
      <point x="387" y="408" type="curve" smooth="yes"/>
      <point x="475" y="376"/>
      <point x="565" y="317"/>
      <point x="565" y="194" type="curve" smooth="yes"/>
      <point x="565" y="66"/>
      <point x="470" y="-10"/>
      <point x="314" y="-10" type="curve" smooth="yes"/>
      <point x="190" y="-10"/>
      <point x="84" y="70"/>
      <point x="40" y="172" type="curve"/>
      <point x="145" y="243" type="line"/>
      <point x="191" y="156"/>
      <point x="241" y="108"/>
      <point x="319" y="108" type="curve" smooth="yes"/>
      <point x="384" y="108"/>
      <point x="414" y="138"/>
      <point x="414" y="191" type="curve" smooth="yes"/>
      <point x="414" y="257"/>
      <point x="345" y="282"/>
      <point x="264" y="313" type="curve" smooth="yes"/>
      <point x="194" y="339"/>
      <point x="79" y="394"/>
      <point x="79" y="527" type="curve" smooth="yes"/>
      <point x="79" y="627"/>
      <point x="176" y="710"/>
      <point x="312" y="710" type="curve" smooth="yes"/>
      <point x="447" y="710"/>
      <point x="518" y="636"/>
      <point x="556" y="562" type="curve"/>
    </contour>
  </outline>
</glyph>
<glyph name="zero" format="2">
  <advance width="643"/>
  <unicode hex="0030"/>
  <outline>
    <contour>
      <point x="179" y="350" type="curve" smooth="yes"/>
      <point x="179" y="209"/>
      <point x="236" y="113"/>
      <point x="322" y="113" type="curve" smooth="yes"/>
      <point x="408" y="113"/>
      <point x="464" y="209"/>
      <point x="464" y="350" type="curve" smooth="yes"/>
      <point x="464" y="491"/>
      <point x="408" y="587"/>
      <point x="322" y="587" type="curve" smooth="yes"/>
      <point x="236" y="587"/>
      <point x="179" y="491"/>
    </contour>
    <contour>
      <point x="40" y="350" type="curve" smooth="yes"/>
      <point x="40" y="572"/>
      <point x="155" y="712"/>
      <point x="322" y="712" type="curve" smooth="yes"/>
      <point x="493" y="712"/>
      <point x="603" y="572"/>
      <point x="603" y="350" type="curve" smooth="yes"/>
      <point x="603" y="128"/>
      <point x="493" y="-12"/>
      <point x="322" y="-12" type="curve" smooth="yes"/>
      <point x="155" y="-12"/>
      <point x="40" y="128"/>
    </contour>
  </outline>
</glyph>
<glyph name="one" format="2">
  <advance width="491"/>
  <unicode hex="0031"/>
  <outline>
    <contour>
      <point x="71" y="517" type="line"/>
      <point x="71" y="647" type="line"/>
      <point x="378" y="712" type="line"/>
      <point x="378" y="0" type="line"/>
      <point x="239" y="0" type="line"/>
      <point x="239" y="561" type="line"/>
    </contour>
  </outline>
</glyph>
<glyph name="three" format="2">
  <advance width="597"/>
  <unicode hex="0033"/>
  <outline>
    <contour>
      <point x="268" y="341" type="curve"/>
      <point x="268" y="410" type="line"/>
      <point x="349" y="410"/>
      <point x="401" y="457"/>
      <point x="401" y="512" type="curve" smooth="yes"/>
      <point x="401" y="561"/>
      <point x="372" y="595"/>
      <point x="314" y="595" type="curve" smooth="yes"/>
      <point x="258" y="595"/>
      <point x="214" y="556"/>
      <point x="214" y="504" type="curve"/>
      <point x="81" y="504" type="line"/>
      <point x="81" y="624"/>
      <point x="174" y="712"/>
      <point x="313" y="712" type="curve" smooth="yes"/>
      <point x="459" y="712"/>
      <point x="544" y="626"/>
      <point x="544" y="521" type="curve" smooth="yes"/>
      <point x="544" y="407"/>
      <point x="425" y="341"/>
    </contour>
    <contour>
      <point x="307" y="-14" type="curve" smooth="yes"/>
      <point x="148" y="-14"/>
      <point x="51" y="91"/>
      <point x="51" y="211" type="curve"/>
      <point x="194" y="211" type="line"/>
      <point x="194" y="143"/>
      <point x="246" y="105"/>
      <point x="311" y="105" type="curve" smooth="yes"/>
      <point x="376" y="105"/>
      <point x="421" y="139"/>
      <point x="421" y="204" type="curve" smooth="yes"/>
      <point x="421" y="271"/>
      <point x="367" y="312"/>
      <point x="268" y="312" type="curve"/>
      <point x="268" y="388" type="line"/>
      <point x="438" y="388"/>
      <point x="564" y="330"/>
      <point x="564" y="189" type="curve" smooth="yes"/>
      <point x="564" y="68"/>
      <point x="464" y="-14"/>
    </contour>
  </outline>
</glyph>
<glyph name="eight" format="2">
  <advance width="602"/>
  <unicode hex="0038"/>
  <outline>
    <contour>
      <point x="78" y="531" type="curve" smooth="yes"/>
      <point x="78" y="643"/>
      <point x="178" y="714"/>
      <point x="301" y="714" type="curve" smooth="yes"/>
      <point x="424" y="714"/>
      <point x="524" y="643"/>
      <point x="524" y="531" type="curve" smooth="yes"/>
      <point x="524" y="409"/>
      <point x="416" y="346"/>
      <point x="301" y="346" type="curve" smooth="yes"/>
      <point x="186" y="346"/>
      <point x="78" y="409"/>
    </contour>
    <contour>
      <point x="213" y="517" type="curve" smooth="yes"/>
      <point x="213" y="464"/>
      <point x="252" y="427"/>
      <point x="301" y="427" type="curve" smooth="yes"/>
      <point x="350" y="427"/>
      <point x="389" y="464"/>
      <point x="389" y="517" type="curve" smooth="yes"/>
      <point x="389" y="570"/>
      <point x="353" y="607"/>
      <point x="301" y="607" type="curve" smooth="yes"/>
      <point x="249" y="607"/>
      <point x="213" y="570"/>
    </contour>
    <contour>
      <point x="53" y="190" type="curve" smooth="yes"/>
      <point x="53" y="332"/>
      <point x="186" y="394"/>
      <point x="301" y="394" type="curve" smooth="yes"/>
      <point x="416" y="394"/>
      <point x="549" y="332"/>
      <point x="549" y="190" type="curve" smooth="yes"/>
      <point x="549" y="68"/>
      <point x="435" y="-14"/>
      <point x="301" y="-14" type="curve" smooth="yes"/>
      <point x="167" y="-14"/>
      <point x="53" y="68"/>
    </contour>
    <contour>
      <point x="194" y="211" type="curve" smooth="yes"/>
      <point x="194" y="142"/>
      <point x="244" y="104"/>
      <point x="301" y="104" type="curve" smooth="yes"/>
      <point x="358" y="104"/>
      <point x="408" y="142"/>
      <point x="408" y="211" type="curve" smooth="yes"/>
      <point x="408" y="270"/>
      <point x="358" y="316"/>
      <point x="301" y="316" type="curve" smooth="yes"/>
      <point x="244" y="316"/>
      <point x="194" y="270"/>
    </contour>
  </outline>
</glyph>
<glyph name="semicolon" format="2">
  <advance width="373"/>
  <unicode hex="003B"/>
  <outline>
    <contour>
      <point x="121" y="431" type="curve" smooth="yes"/>
      <point x="121" y="475"/>
      <point x="156" y="512"/>
      <point x="203" y="512" type="curve" smooth="yes"/>
      <point x="250" y="512"/>
      <point x="285" y="475"/>
      <point x="285" y="431" type="curve" smooth="yes"/>
      <point x="285" y="387"/>
      <point x="250" y="350"/>
      <point x="203" y="350" type="curve" smooth="yes"/>
      <point x="156" y="350"/>
      <point x="121" y="387"/>
    </contour>
    <contour>
      <point x="144" y="110" type="line"/>
      <point x="273" y="78" type="line"/>
      <point x="153" y="-172" type="line"/>
      <point x="56" y="-149" type="line"/>
    </contour>
  </outline>
</glyph>
<glyph name="at" format="2">
  <advance width="770"/>
  <unicode hex="0040"/>
  <outline>
    <contour>
      <point x="301" y="320" type="curve" smooth="yes"/>
      <point x="301" y="273"/>
      <point x="320" y="245"/>
      <point x="357" y="245" type="curve" smooth="yes"/>
      <point x="396" y="245"/>
      <point x="444" y="286"/>
      <point x="444" y="366" type="curve" smooth="yes"/>
      <point x="444" y="416"/>
      <point x="420" y="441"/>
      <point x="385" y="441" type="curve" smooth="yes"/>
      <point x="341" y="441"/>
      <point x="301" y="389"/>
    </contour>
    <contour>
      <point x="194" y="314" type="curve" smooth="yes"/>
      <point x="194" y="453"/>
      <point x="284" y="530"/>
      <point x="365" y="530" type="curve" smooth="yes"/>
      <point x="441" y="530"/>
      <point x="488" y="453"/>
      <point x="488" y="370" type="curve" smooth="yes"/>
      <point x="488" y="231"/>
      <point x="414" y="156"/>
      <point x="328" y="156" type="curve" smooth="yes"/>
      <point x="250" y="156"/>
      <point x="194" y="215"/>
    </contour>
    <contour>
      <point x="24" y="320" type="curve" smooth="yes"/>
      <point x="24" y="543"/>
      <point x="187" y="719"/>
      <point x="415" y="719" type="curve" smooth="yes"/>
      <point x="629" y="719"/>
      <point x="746" y="553"/>
      <point x="746" y="390" type="curve" smooth="yes"/>
      <point x="746" y="213"/>
      <point x="646" y="146"/>
      <point x="558" y="146" type="curve" smooth="yes"/>
      <point x="493" y="146"/>
      <point x="443" y="200"/>
      <point x="453" y="266" type="curve"/>
      <point x="442" y="287" type="line"/>
      <point x="469" y="520" type="line"/>
      <point x="573" y="520" type="line"/>
      <point x="542" y="302" type="line" smooth="yes"/>
      <point x="541" y="295"/>
      <point x="540" y="283"/>
      <point x="540" y="275" type="curve" smooth="yes"/>
      <point x="540" y="251"/>
      <point x="546" y="233"/>
      <point x="570" y="233" type="curve" smooth="yes"/>
      <point x="596" y="233"/>
      <point x="648" y="268"/>
      <point x="648" y="390" type="curve" smooth="yes"/>
      <point x="648" y="519"/>
      <point x="570" y="630"/>
      <point x="415" y="630" type="curve" smooth="yes"/>
      <point x="236" y="630"/>
      <point x="122" y="499"/>
      <point x="122" y="320" type="curve" smooth="yes"/>
      <point x="122" y="166"/>
      <point x="212" y="68"/>
      <point x="374" y="68" type="curve" smooth="yes"/>
      <point x="444" y="68"/>
      <point x="502" y="82"/>
      <point x="563" y="115" type="curve"/>
      <point x="600" y="35" type="line"/>
      <point x="540" y="1"/>
      <point x="470" y="-21"/>
      <point x="365" y="-21" type="curve" smooth="yes"/>
      <point x="142" y="-21"/>
      <point x="24" y="121"/>
    </contour>
  </outline>
</glyph>
<glyph name="N" format="2">
  <advance width="787"/>
  <unicode hex="004E"/>
  <outline>
    <contour>
      <point x="573" y="700" type="line"/>
      <point x="712" y="700" type="line"/>
      <point x="712" y="-35" type="line"/>
      <point x="215" y="432" type="line"/>
      <point x="215" y="0" type="line"/>
      <point x="76" y="0" type="line"/>
      <point x="76" y="735" type="line"/>
      <point x="573" y="268" type="line"/>
    </contour>
  </outline>
</glyph>
<glyph name="T" format="2">
  <advance width="532"/>
  <unicode hex="0054"/>
  <outline>
    <contour>
      <point x="6" y="570" type="line"/>
      <point x="6" y="700" type="line"/>
      <point x="526" y="700" type="line"/>
      <point x="526" y="570" type="line"/>
      <point x="338" y="570" type="line"/>
      <point x="338" y="0" type="line"/>
      <point x="194" y="0" type="line"/>
      <point x="194" y="570" type="line"/>
    </contour>
  </outline>
</glyph>
<glyph name="U" format="2">
  <advance width="677"/>
  <unicode hex="0055"/>
  <outline>
    <contour>
      <point x="71" y="700" type="line"/>
      <point x="214" y="700" type="line"/>
      <point x="214" y="239" type="line" smooth="yes"/>
      <point x="214" y="160"/>
      <point x="256" y="107"/>
      <point x="339" y="107" type="curve" smooth="yes"/>
      <point x="422" y="107"/>
      <point x="464" y="160"/>
      <point x="464" y="239" type="curve" smooth="yes"/>
      <point x="464" y="700" type="line"/>
      <point x="607" y="700" type="line"/>
      <point x="607" y="230" type="line" smooth="yes"/>
      <point x="607" y="65"/>
      <point x="493" y="-23"/>
      <point x="339" y="-23" type="curve" smooth="yes"/>
      <point x="185" y="-23"/>
      <point x="71" y="65"/>
      <point x="71" y="230" type="curve" smooth="yes"/>
    </contour>
  </outline>
</glyph>
<glyph name="asciicircum" format="2">
  <advance width="510"/>
  <unicode hex="005E"/>
  <outline>
    <contour>
      <point x="255" y="593" type="line"/>
      <point x="167" y="451" type="line"/>
      <point x="48" y="451" type="line"/>
      <point x="218" y="710" type="line"/>
      <point x="292" y="710" type="line"/>
      <point x="462" y="451" type="line"/>
      <point x="343" y="451" type="line"/>
    </contour>
  </outline>
</glyph>
<glyph name="q" format="2">
  <advance width="602"/>
  <unicode hex="0071"/>
  <outline>
    <contour>
      <point x="411" y="-220" type="line"/>
      <point x="411" y="460" type="line"/>
      <point x="541" y="460" type="line"/>
      <point x="541" y="-220" type="line"/>
    </contour>
    <contour>
      <point x="33" y="230" type="curve" smooth="yes"/>
      <point x="33" y="388"/>
      <point x="138" y="474"/>
      <point x="254" y="474" type="curve" smooth="yes"/>
      <point x="373" y="474"/>
      <point x="447" y="379"/>
      <point x="447" y="230" type="curve" smooth="yes"/>
      <point x="447" y="81"/>
      <point x="373" y="-14"/>
      <point x="254" y="-14" type="curve" smooth="yes"/>
      <point x="138" y="-14"/>
      <point x="33" y="72"/>
    </contour>
    <contour>
      <point x="168" y="230" type="curve" smooth="yes"/>
      <point x="168" y="148"/>
      <point x="224" y="102"/>
      <point x="292" y="102" type="curve" smooth="yes"/>
      <point x="349" y="102"/>
      <point x="411" y="146"/>
      <point x="411" y="230" type="curve" smooth="yes"/>
      <point x="411" y="314"/>
      <point x="349" y="358"/>
      <point x="292" y="358" type="curve" smooth="yes"/>
      <point x="224" y="358"/>
      <point x="168" y="312"/>
    </contour>
  </outline>
</glyph>
<glyph name="z" format="2">
  <advance width="503"/>
  <unicode hex="007A"/>
  <outline>
    <contour>
      <point x="270" y="342" type="line"/>
      <point x="54" y="342" type="line"/>
      <point x="54" y="460" type="line"/>
      <point x="488" y="460" type="line"/>
      <point x="242" y="118" type="line"/>
      <point x="460" y="118" type="line"/>
      <point x="460" y="0" type="line"/>
      <point x="15" y="0" type="line"/>
    </contour>
  </outline>
</glyph>
<glyph name="cent" format="2">
  <advance width="580"/>
  <unicode hex="00A2"/>
  <outline>
    <contour>
      <point x="250" y="38" type="line"/>
      <point x="346" y="38" type="line"/>
      <point x="353" y="-112" type="line"/>
      <point x="243" y="-112" type="line"/>
    </contour>
    <contour>
      <point x="192" y="230" type="curve" smooth="yes"/>
      <point x="192" y="147"/>
      <point x="252" y="97"/>
      <point x="325" y="97" type="curve" smooth="yes"/>
      <point x="390" y="97"/>
      <point x="443" y="130"/>
      <point x="468" y="171" type="curve"/>
      <point x="468" y="36" type="line"/>
      <point x="436" y="7"/>
      <point x="380" y="-10"/>
      <point x="317" y="-10" type="curve" smooth="yes"/>
      <point x="169" y="-10"/>
      <point x="59" y="87"/>
      <point x="59" y="230" type="curve" smooth="yes"/>
      <point x="59" y="373"/>
      <point x="169" y="470"/>
      <point x="317" y="470" type="curve" smooth="yes"/>
      <point x="380" y="470"/>
      <point x="436" y="452"/>
      <point x="468" y="424" type="curve"/>
      <point x="468" y="289" type="line"/>
      <point x="443" y="330"/>
      <point x="390" y="363"/>
      <point x="325" y="363" type="curve" smooth="yes"/>
      <point x="252" y="363"/>
      <point x="192" y="309"/>
    </contour>
    <contour>
      <point x="243" y="578" type="line"/>
      <point x="353" y="578" type="line"/>
      <point x="346" y="428" type="line"/>
      <point x="250" y="428" type="line"/>
    </contour>
  </outline>
</glyph>
<glyph name="yen" format="2">
  <advance width="641"/>
  <unicode hex="00A5"/>
  <outline>
    <contour>
      <point x="45" y="273" type="line"/>
      <point x="45" y="365" type="line"/>
      <point x="593" y="365" type="line"/>
      <point x="593" y="273" type="line"/>
    </contour>
    <contour>
      <point x="45" y="123" type="line"/>
      <point x="45" y="215" type="line"/>
      <point x="593" y="215" type="line"/>
      <point x="593" y="123" type="line"/>
    </contour>
    <contour>
      <point x="471" y="700" type="line"/>
      <point x="634" y="700" type="line"/>
      <point x="395" y="293" type="line"/>
      <point x="395" y="0" type="line"/>
      <point x="248" y="0" type="line"/>
      <point x="248" y="290" type="line"/>
      <point x="6" y="700" type="line"/>
      <point x="171" y="700" type="line"/>
      <point x="320" y="418" type="line"/>
    </contour>
  </outline>
</glyph>
<glyph name="brokenbar" format="2">
  <advance width="328"/>
  <unicode hex="00A6"/>
  <outline>
    <contour>
      <point x="100" y="695" type="line"/>
      <point x="229" y="695" type="line"/>
      <point x="229" y="438" type="line"/>
      <point x="100" y="438" type="line"/>
    </contour>
    <contour>
      <point x="229" y="262" type="line"/>
      <point x="229" y="5" type="line"/>
      <point x="100" y="5" type="line"/>
      <point x="100" y="262" type="line"/>
    </contour>
  </outline>
</glyph>
<glyph name="section" format="2">
  <advance width="525"/>
  <unicode hex="00A7"/>
  <outline>
    <contour>
      <point x="373" y="558" type="line"/>
      <point x="348" y="591"/>
      <point x="301" y="609"/>
      <point x="268" y="609" type="curve" smooth="yes"/>
      <point x="232" y="609"/>
      <point x="211" y="597"/>
      <point x="211" y="575" type="curve" smooth="yes"/>
      <point x="211" y="546"/>
      <point x="263" y="532"/>
      <point x="316" y="515" type="curve" smooth="yes"/>
      <point x="389" y="492"/>
      <point x="449" y="447"/>
      <point x="449" y="376" type="curve" smooth="yes"/>
      <point x="449" y="274"/>
      <point x="355" y="232"/>
      <point x="250" y="232" type="curve"/>
      <point x="250" y="272" type="line"/>
      <point x="291" y="276"/>
      <point x="328" y="310"/>
      <point x="328" y="350" type="curve" smooth="yes"/>
      <point x="328" y="403"/>
      <point x="265" y="421"/>
      <point x="212" y="442" type="curve" smooth="yes"/>
      <point x="152" y="465"/>
      <point x="87" y="501"/>
      <point x="87" y="582" type="curve" smooth="yes"/>
      <point x="87" y="672"/>
      <point x="176" y="720"/>
      <point x="261" y="720" type="curve" smooth="yes"/>
      <point x="339" y="720"/>
      <point x="417" y="683"/>
      <point x="442" y="639" type="curve"/>
    </contour>
    <contour>
      <point x="118" y="170" type="line"/>
      <point x="156" y="118"/>
      <point x="215" y="91"/>
      <point x="259" y="91" type="curve" smooth="yes"/>
      <point x="300" y="91"/>
      <point x="321" y="106"/>
      <point x="321" y="133" type="curve" smooth="yes"/>
      <point x="321" y="170"/>
      <point x="276" y="184"/>
      <point x="222" y="201" type="curve" smooth="yes"/>
      <point x="150" y="223"/>
      <point x="77" y="265"/>
      <point x="77" y="342" type="curve" smooth="yes"/>
      <point x="77" y="431"/>
      <point x="166" y="480"/>
      <point x="280" y="480" type="curve"/>
      <point x="280" y="445" type="line"/>
      <point x="233" y="429"/>
      <point x="200" y="410"/>
      <point x="200" y="369" type="curve" smooth="yes"/>
      <point x="200" y="307"/>
      <point x="274" y="296"/>
      <point x="325" y="275" type="curve" smooth="yes"/>
      <point x="390" y="248"/>
      <point x="452" y="206"/>
      <point x="452" y="130" type="curve" smooth="yes"/>
      <point x="452" y="27"/>
      <point x="361" y="-19"/>
      <point x="262" y="-19" type="curve" smooth="yes"/>
      <point x="160" y="-19"/>
      <point x="84" y="28"/>
      <point x="48" y="90" type="curve"/>
    </contour>
  </outline>
</glyph>
<glyph name="copyright" format="2">
  <advance width="800"/>
  <unicode hex="00A9"/>
  <outline>
    <contour>
      <point x="274" y="350" type="curve" smooth="yes"/>
      <point x="274" y="266"/>
      <point x="333" y="214"/>
      <point x="409" y="214" type="curve" smooth="yes"/>
      <point x="468" y="214"/>
      <point x="509" y="240"/>
      <point x="537" y="272" type="curve"/>
      <point x="537" y="175" type="line"/>
      <point x="503" y="147"/>
      <point x="466" y="131"/>
      <point x="405" y="131" type="curve" smooth="yes"/>
      <point x="276" y="131"/>
      <point x="180" y="221"/>
      <point x="180" y="350" type="curve" smooth="yes"/>
      <point x="180" y="479"/>
      <point x="276" y="569"/>
      <point x="405" y="569" type="curve" smooth="yes"/>
      <point x="466" y="569"/>
      <point x="503" y="553"/>
      <point x="537" y="525" type="curve"/>
      <point x="537" y="428" type="line"/>
      <point x="509" y="460"/>
      <point x="468" y="486"/>
      <point x="409" y="486" type="curve" smooth="yes"/>
      <point x="333" y="486"/>
      <point x="274" y="434"/>
    </contour>
    <contour>
      <point x="95" y="350" type="curve" smooth="yes"/>
      <point x="95" y="172"/>
      <point x="227" y="40"/>
      <point x="400" y="40" type="curve" smooth="yes"/>
      <point x="573" y="40"/>
      <point x="705" y="172"/>
      <point x="705" y="350" type="curve" smooth="yes"/>
      <point x="705" y="528"/>
      <point x="573" y="660"/>
      <point x="400" y="660" type="curve" smooth="yes"/>
      <point x="227" y="660"/>
      <point x="95" y="528"/>
    </contour>
    <contour>
      <point x="40" y="350" type="curve" smooth="yes"/>
      <point x="40" y="559"/>
      <point x="196" y="710"/>
      <point x="400" y="710" type="curve" smooth="yes"/>
      <point x="604" y="710"/>
      <point x="760" y="559"/>
      <point x="760" y="350" type="curve" smooth="yes"/>
      <point x="760" y="141"/>
      <point x="604" y="-10"/>
      <point x="400" y="-10" type="curve" smooth="yes"/>
      <point x="196" y="-10"/>
      <point x="40" y="141"/>
    </contour>
  </outline>
</glyph>
<glyph name="macron" format="2">
  <advance width="525"/>
  <unicode hex="00AF"/>
  <outline>
    <contour>
      <point x="80" y="581" type="line"/>
      <point x="80" y="694" type="line"/>
      <point x="445" y="694" type="line"/>
      <point x="445" y="581" type="line"/>
    </contour>
  </outline>
</glyph>
<glyph name="degree" format="2">
  <advance width="290"/>
  <unicode hex="00B0"/>
  <outline>
    <contour>
      <point x="18" y="598" type="curve" smooth="yes"/>
      <point x="18" y="670"/>
      <point x="72" y="720"/>
      <point x="145" y="720" type="curve" smooth="yes"/>
      <point x="218" y="720"/>
      <point x="273" y="670"/>
      <point x="273" y="598" type="curve" smooth="yes"/>
      <point x="273" y="526"/>
      <point x="218" y="476"/>
      <point x="145" y="476" type="curve" smooth="yes"/>
      <point x="72" y="476"/>
      <point x="18" y="526"/>
    </contour>
    <contour>
      <point x="82" y="598" type="curve" smooth="yes"/>
      <point x="82" y="559"/>
      <point x="109" y="532"/>
      <point x="145" y="532" type="curve" smooth="yes"/>
      <point x="181" y="532"/>
      <point x="209" y="559"/>
      <point x="209" y="598" type="curve" smooth="yes"/>
      <point x="209" y="637"/>
      <point x="181" y="664"/>
      <point x="145" y="664" type="curve" smooth="yes"/>
      <point x="109" y="664"/>
      <point x="82" y="637"/>
    </contour>
  </outline>
</glyph>
<glyph name="ordmasculine" format="2">
  <advance width="278"/>
  <unicode hex="00BA"/>
  <outline>
    <contour>
      <point x="19" y="580" type="curve" smooth="yes"/>
      <point x="19" y="652"/>
      <point x="73" y="700"/>
      <point x="146" y="700" type="curve" smooth="yes"/>
      <point x="219" y="700"/>
      <point x="274" y="652"/>
      <point x="274" y="580" type="curve" smooth="yes"/>
      <point x="274" y="508"/>
      <point x="219" y="460"/>
      <point x="146" y="460" type="curve" smooth="yes"/>
      <point x="73" y="460"/>
      <point x="19" y="508"/>
    </contour>
    <contour>
      <point x="85" y="580" type="curve" smooth="yes"/>
      <point x="85" y="541"/>
      <point x="112" y="515"/>
      <point x="146" y="515" type="curve" smooth="yes"/>
      <point x="180" y="515"/>
      <point x="208" y="541"/>
      <point x="208" y="580" type="curve" smooth="yes"/>
      <point x="208" y="619"/>
      <point x="180" y="645"/>
      <point x="146" y="645" type="curve" smooth="yes"/>
      <point x="112" y="645"/>
      <point x="85" y="619"/>
    </contour>
  </outline>
</glyph>
<glyph name="Aacute" format="2">
  <advance width="711"/>
  <unicode hex="00C1"/>
  <outline>
    <contour>
      <point x="173" y="158" type="line"/>
      <point x="190" y="272" type="line"/>
      <point x="526" y="272" type="line"/>
      <point x="543" y="158" type="line"/>
    </contour>
    <contour>
      <point x="356" y="473" type="line"/>
      <point x="252" y="232" type="line"/>
      <point x="255" y="200" type="line"/>
      <point x="163" y="0" type="line"/>
      <point x="1" y="0" type="line"/>
      <point x="356" y="741" type="line"/>
      <point x="711" y="0" type="line"/>
      <point x="549" y="0" type="line"/>
      <point x="459" y="193" type="line"/>
      <point x="461" y="229" type="line"/>
    </contour>
    <contour>
      <point x="505" y="951" type="line"/>
      <point x="325" y="801" type="line"/>
      <point x="252" y="840" type="line"/>
      <point x="402" y="1000" type="line"/>
    </contour>
  </outline>
</glyph>
<glyph name="Igrave" format="2">
  <advance width="296"/>
  <unicode hex="00CC"/>
  <outline>
    <contour>
      <point x="76" y="700" type="line"/>
      <point x="221" y="700" type="line"/>
      <point x="221" y="0" type="line"/>
      <point x="76" y="0" type="line"/>
    </contour>
    <contour>
      <point x="-8" y="929" type="line"/>
      <point x="96" y="977" type="line"/>
      <point x="246" y="817" type="line"/>
      <point x="172" y="779" type="line"/>
    </contour>
  </outline>
</glyph>
<glyph name="eth" format="2">
  <advance width="640"/>
  <unicode hex="00F0"/>
  <outline>
    <contour>
      <point x="450" y="241" type="curve" smooth="yes"/>
      <point x="450" y="320"/>
      <point x="394" y="374"/>
      <point x="320" y="374" type="curve" smooth="yes"/>
      <point x="246" y="374"/>
      <point x="191" y="320"/>
      <point x="191" y="241" type="curve" smooth="yes"/>
      <point x="191" y="162"/>
      <point x="246" y="109"/>
      <point x="320" y="109" type="curve" smooth="yes"/>
      <point x="394" y="109"/>
      <point x="450" y="162"/>
    </contour>
    <contour>
      <point x="309" y="698" type="line"/>
      <point x="521" y="420" type="line" smooth="yes"/>
      <point x="561" y="370"/>
      <point x="591" y="311"/>
      <point x="591" y="241" type="curve" smooth="yes"/>
      <point x="591" y="78"/>
      <point x="470" y="-14"/>
      <point x="320" y="-14" type="curve" smooth="yes"/>
      <point x="170" y="-14"/>
      <point x="50" y="78"/>
      <point x="50" y="241" type="curve" smooth="yes"/>
      <point x="50" y="379"/>
      <point x="155" y="468"/>
      <point x="263" y="468" type="curve" smooth="yes"/>
      <point x="311" y="468"/>
      <point x="343" y="460"/>
      <point x="377" y="425" type="curve"/>
      <point x="352" y="434" type="line"/>
      <point x="127" y="698" type="line"/>
    </contour>
    <contour>
      <point x="142" y="520" type="line"/>
      <point x="142" y="594" type="line"/>
      <point x="537" y="594" type="line"/>
      <point x="537" y="520" type="line"/>
    </contour>
  </outline>
</glyph>
<glyph name="otilde" format="2">
  <advance width="576"/>
  <unicode hex="00F5"/>
  <outline>
    <contour>
      <point x="33" y="230" type="curve" smooth="yes"/>
      <point x="33" y="373"/>
      <point x="142" y="470"/>
      <point x="288" y="470" type="curve" smooth="yes"/>
      <point x="434" y="470"/>
      <point x="543" y="373"/>
      <point x="543" y="230" type="curve" smooth="yes"/>
      <point x="543" y="87"/>
      <point x="434" y="-10"/>
      <point x="288" y="-10" type="curve" smooth="yes"/>
      <point x="142" y="-10"/>
      <point x="33" y="87"/>
    </contour>
    <contour>
      <point x="166" y="230" type="curve" smooth="yes"/>
      <point x="166" y="151"/>
      <point x="220" y="100"/>
      <point x="288" y="100" type="curve" smooth="yes"/>
      <point x="356" y="100"/>
      <point x="411" y="151"/>
      <point x="411" y="230" type="curve" smooth="yes"/>
      <point x="411" y="309"/>
      <point x="356" y="361"/>
      <point x="288" y="361" type="curve" smooth="yes"/>
      <point x="220" y="361"/>
      <point x="166" y="309"/>
    </contour>
    <contour>
      <point x="102" y="587" type="line"/>
      <point x="112" y="636"/>
      <point x="158" y="678"/>
      <point x="216" y="678" type="curve" smooth="yes"/>
      <point x="282" y="678"/>
      <point x="293" y="628"/>
      <point x="349" y="628" type="curve" smooth="yes"/>
      <point x="372" y="628"/>
      <point x="391" y="647"/>
      <point x="411" y="679" type="curve"/>
      <point x="475" y="614" type="line"/>
      <point x="459" y="577"/>
      <point x="408" y="533"/>
      <point x="349" y="533" type="curve" smooth="yes"/>
      <point x="294" y="533"/>
      <point x="263" y="584"/>
      <point x="215" y="584" type="curve" smooth="yes"/>
      <point x="176" y="584"/>
      <point x="167" y="548"/>
      <point x="167" y="533" type="curve"/>
    </contour>
  </outline>
</glyph>
<glyph name="udieresis" format="2">
  <advance width="559"/>
  <unicode hex="00FC"/>
  <outline>
    <contour>
      <point x="366" y="0" type="line"/>
      <point x="366" y="460" type="line"/>
      <point x="495" y="460" type="line"/>
      <point x="495" y="0" type="line"/>
    </contour>
    <contour>
      <point x="198" y="180" type="line" smooth="yes"/>
      <point x="198" y="119"/>
      <point x="221" y="86"/>
      <point x="275" y="86" type="curve" smooth="yes"/>
      <point x="330" y="86"/>
      <point x="366" y="123"/>
      <point x="366" y="180" type="curve"/>
      <point x="397" y="184" type="line"/>
      <point x="397" y="75"/>
      <point x="335" y="-10"/>
      <point x="227" y="-10" type="curve" smooth="yes"/>
      <point x="119" y="-10"/>
      <point x="64" y="51"/>
      <point x="64" y="166" type="curve" smooth="yes"/>
      <point x="64" y="460" type="line"/>
      <point x="198" y="460" type="line"/>
    </contour>
    <contour>
      <point x="318" y="615" type="curve" smooth="yes"/>
      <point x="318" y="658"/>
      <point x="352" y="689"/>
      <point x="395" y="689" type="curve" smooth="yes"/>
      <point x="438" y="689"/>
      <point x="473" y="658"/>
      <point x="473" y="615" type="curve" smooth="yes"/>
      <point x="473" y="572"/>
      <point x="438" y="542"/>
      <point x="395" y="542" type="curve" smooth="yes"/>
      <point x="352" y="542"/>
      <point x="318" y="572"/>
    </contour>
    <contour>
      <point x="87" y="615" type="curve" smooth="yes"/>
      <point x="87" y="658"/>
      <point x="122" y="689"/>
      <point x="165" y="689" type="curve" smooth="yes"/>
      <point x="208" y="689"/>
      <point x="243" y="658"/>
      <point x="243" y="615" type="curve" smooth="yes"/>
      <point x="243" y="572"/>
      <point x="208" y="542"/>
      <point x="165" y="542" type="curve" smooth="yes"/>
      <point x="122" y="542"/>
      <point x="87" y="572"/>
    </contour>
  </outline>
</glyph>
<glyph name="ydieresis" format="2">
  <advance width="496"/>
  <unicode hex="00FF"/>
  <outline>
    <contour>
      <point x="503" y="460" type="line"/>
      <point x="203" y="-220" type="line"/>
      <point x="69" y="-220" type="line"/>
      <point x="186" y="46" type="line"/>
      <point x="-6" y="460" type="line"/>
      <point x="138" y="460" type="line"/>
      <point x="286" y="94" type="line"/>
      <point x="222" y="96" type="line"/>
      <point x="367" y="460" type="line"/>
    </contour>
    <contour>
      <point x="285" y="604" type="curve" smooth="yes"/>
      <point x="285" y="647"/>
      <point x="320" y="678"/>
      <point x="363" y="678" type="curve" smooth="yes"/>
      <point x="406" y="678"/>
      <point x="441" y="647"/>
      <point x="441" y="604" type="curve" smooth="yes"/>
      <point x="441" y="561"/>
      <point x="406" y="530"/>
      <point x="363" y="530" type="curve" smooth="yes"/>
      <point x="320" y="530"/>
      <point x="285" y="561"/>
    </contour>
    <contour>
      <point x="55" y="604" type="curve" smooth="yes"/>
      <point x="55" y="647"/>
      <point x="90" y="678"/>
      <point x="133" y="678" type="curve" smooth="yes"/>
      <point x="176" y="678"/>
      <point x="211" y="647"/>
      <point x="211" y="604" type="curve" smooth="yes"/>
      <point x="211" y="561"/>
      <point x="176" y="530"/>
      <point x="133" y="530" type="curve" smooth="yes"/>
      <point x="90" y="530"/>
      <point x="55" y="561"/>
    </contour>
  </outline>
</glyph>
<glyph name="Amacron" format="2">
  <advance width="711"/>
  <unicode hex="0100"/>
  <outline>
    <contour>
      <point x="173" y="158" type="line"/>
      <point x="190" y="272" type="line"/>
      <point x="526" y="272" type="line"/>
      <point x="543" y="158" type="line"/>
    </contour>
    <contour>
      <point x="356" y="473" type="line"/>
      <point x="252" y="232" type="line"/>
      <point x="255" y="200" type="line"/>
      <point x="163" y="0" type="line"/>
      <point x="1" y="0" type="line"/>
      <point x="356" y="741" type="line"/>
      <point x="711" y="0" type="line"/>
      <point x="549" y="0" type="line"/>
      <point x="459" y="193" type="line"/>
      <point x="461" y="229" type="line"/>
    </contour>
    <contour>
      <point x="174" y="801" type="line"/>
      <point x="174" y="915" type="line"/>
      <point x="538" y="915" type="line"/>
      <point x="538" y="801" type="line"/>
    </contour>
  </outline>
</glyph>
<glyph name="Abreve" format="2">
  <advance width="711"/>
  <unicode hex="0102"/>
  <outline>
    <contour>
      <point x="173" y="158" type="line"/>
      <point x="190" y="272" type="line"/>
      <point x="526" y="272" type="line"/>
      <point x="543" y="158" type="line"/>
    </contour>
    <contour>
      <point x="356" y="473" type="line"/>
      <point x="252" y="232" type="line"/>
      <point x="255" y="200" type="line"/>
      <point x="163" y="0" type="line"/>
      <point x="1" y="0" type="line"/>
      <point x="356" y="741" type="line"/>
      <point x="711" y="0" type="line"/>
      <point x="549" y="0" type="line"/>
      <point x="459" y="193" type="line"/>
      <point x="461" y="229" type="line"/>
    </contour>
    <contour>
      <point x="194" y="946" type="curve"/>
      <point x="284" y="946" type="line"/>
      <point x="284" y="914"/>
      <point x="308" y="882"/>
      <point x="356" y="882" type="curve" smooth="yes"/>
      <point x="404" y="882"/>
      <point x="428" y="914"/>
      <point x="428" y="946" type="curve"/>
      <point x="518" y="946" type="line"/>
      <point x="518" y="868"/>
      <point x="461" y="801"/>
      <point x="356" y="801" type="curve" smooth="yes"/>
      <point x="251" y="801"/>
      <point x="194" y="868"/>
    </contour>
  </outline>
</glyph>
<glyph name="Aogonek" format="2">
  <advance width="711"/>
  <unicode hex="0104"/>
  <outline>
    <contour>
      <point x="173" y="158" type="line"/>
      <point x="190" y="272" type="line"/>
      <point x="526" y="272" type="line"/>
      <point x="543" y="158" type="line"/>
    </contour>
    <contour>
      <point x="356" y="473" type="line"/>
      <point x="252" y="232" type="line"/>
      <point x="255" y="200" type="line"/>
      <point x="163" y="0" type="line"/>
      <point x="1" y="0" type="line"/>
      <point x="356" y="741" type="line"/>
      <point x="711" y="0" type="line"/>
      <point x="549" y="0" type="line"/>
      <point x="459" y="193" type="line"/>
      <point x="461" y="229" type="line"/>
    </contour>
    <contour>
      <point x="682" y="-117" type="curve"/>
      <point x="715" y="-180" type="line"/>
      <point x="700" y="-200"/>
      <point x="670" y="-220"/>
      <point x="618" y="-220" type="curve" smooth="yes"/>
      <point x="547" y="-220"/>
      <point x="499" y="-183"/>
      <point x="499" y="-120" type="curve" smooth="yes"/>
      <point x="499" y="-57"/>
      <point x="566" y="-11"/>
      <point x="636" y="25" type="curve"/>
      <point x="677" y="0" type="line"/>
      <point x="625" y="-26"/>
      <point x="592" y="-63"/>
      <point x="592" y="-96" type="curve" smooth="yes"/>
      <point x="592" y="-124"/>
      <point x="606" y="-137"/>
      <point x="632" y="-137" type="curve" smooth="yes"/>
      <point x="654" y="-137"/>
      <point x="668" y="-130"/>
    </contour>
  </outline>
</glyph>
<glyph name="aogonek" format="2">
  <advance width="526"/>
  <unicode hex="0105"/>
  <outline>
    <contour>
      <point x="156" y="137" type="curve" smooth="yes"/>
      <point x="156" y="99"/>
      <point x="191" y="80"/>
      <point x="232" y="80" type="curve" smooth="yes"/>
      <point x="295" y="80"/>
      <point x="345" y="107"/>
      <point x="345" y="184" type="curve"/>
      <point x="361" y="130" type="line"/>
      <point x="361" y="41"/>
      <point x="285" y="-10"/>
      <point x="190" y="-10" type="curve" smooth="yes"/>
      <point x="95" y="-10"/>
      <point x="26" y="39"/>
      <point x="26" y="131" type="curve" smooth="yes"/>
      <point x="26" y="224"/>
      <point x="103" y="281"/>
      <point x="224" y="281" type="curve" smooth="yes"/>
      <point x="299" y="281"/>
      <point x="360" y="248"/>
      <point x="378" y="228" type="curve"/>
      <point x="378" y="165" type="line"/>
      <point x="340" y="193"/>
      <point x="303" y="206"/>
      <point x="249" y="206" type="curve" smooth="yes"/>
      <point x="188" y="206"/>
      <point x="156" y="179"/>
    </contour>
    <contour>
      <point x="115" y="329" type="curve"/>
      <point x="68" y="418" type="line"/>
      <point x="115" y="443"/>
      <point x="184" y="472"/>
      <point x="267" y="472" type="curve" smooth="yes"/>
      <point x="385" y="472"/>
      <point x="470" y="419"/>
      <point x="470" y="326" type="curve" smooth="yes"/>
      <point x="470" y="0" type="line"/>
      <point x="345" y="0" type="line"/>
      <point x="345" y="305" type="line" smooth="yes"/>
      <point x="345" y="346"/>
      <point x="309" y="371"/>
      <point x="259" y="371" type="curve" smooth="yes"/>
      <point x="193" y="371"/>
      <point x="137" y="343"/>
    </contour>
    <contour>
      <point x="454" y="-117" type="curve"/>
      <point x="487" y="-180" type="line"/>
      <point x="472" y="-200"/>
      <point x="442" y="-220"/>
      <point x="390" y="-220" type="curve" smooth="yes"/>
      <point x="319" y="-220"/>
      <point x="271" y="-183"/>
      <point x="271" y="-120" type="curve" smooth="yes"/>
      <point x="271" y="-57"/>
      <point x="338" y="-11"/>
      <point x="408" y="25" type="curve"/>
      <point x="449" y="0" type="line"/>
      <point x="397" y="-26"/>
      <point x="364" y="-63"/>
      <point x="364" y="-96" type="curve" smooth="yes"/>
      <point x="364" y="-124"/>
      <point x="378" y="-137"/>
      <point x="404" y="-137" type="curve" smooth="yes"/>
      <point x="426" y="-137"/>
      <point x="440" y="-130"/>
    </contour>
  </outline>
</glyph>
<glyph name="Ebreve" format="2">
  <advance width="586"/>
  <unicode hex="0114"/>
  <outline>
    <contour>
      <point x="168" y="0" type="line"/>
      <point x="168" y="121" type="line"/>
      <point x="521" y="121" type="line"/>
      <point x="521" y="0" type="line"/>
    </contour>
    <contour>
      <point x="168" y="579" type="line"/>
      <point x="168" y="700" type="line"/>
      <point x="521" y="700" type="line"/>
      <point x="521" y="579" type="line"/>
    </contour>
    <contour>
      <point x="168" y="312" type="line"/>
      <point x="168" y="431" type="line"/>
      <point x="501" y="431" type="line"/>
      <point x="501" y="312" type="line"/>
    </contour>
    <contour>
      <point x="76" y="700" type="line"/>
      <point x="215" y="700" type="line"/>
      <point x="215" y="0" type="line"/>
      <point x="76" y="0" type="line"/>
    </contour>
    <contour>
      <point x="136" y="919" type="curve"/>
      <point x="226" y="919" type="line"/>
      <point x="226" y="887"/>
      <point x="250" y="854"/>
      <point x="298" y="854" type="curve" smooth="yes"/>
      <point x="346" y="854"/>
      <point x="370" y="887"/>
      <point x="370" y="919" type="curve"/>
      <point x="461" y="919" type="line"/>
      <point x="461" y="841"/>
      <point x="403" y="774"/>
      <point x="298" y="774" type="curve" smooth="yes"/>
      <point x="193" y="774"/>
      <point x="136" y="841"/>
    </contour>
  </outline>
</glyph>
<glyph name="Edotaccent" format="2">
  <advance width="586"/>
  <unicode hex="0116"/>
  <outline>
    <contour>
      <point x="168" y="0" type="line"/>
      <point x="168" y="121" type="line"/>
      <point x="521" y="121" type="line"/>
      <point x="521" y="0" type="line"/>
    </contour>
    <contour>
      <point x="168" y="579" type="line"/>
      <point x="168" y="700" type="line"/>
      <point x="521" y="700" type="line"/>
      <point x="521" y="579" type="line"/>
    </contour>
    <contour>
      <point x="168" y="312" type="line"/>
      <point x="168" y="431" type="line"/>
      <point x="501" y="431" type="line"/>
      <point x="501" y="312" type="line"/>
    </contour>
    <contour>
      <point x="76" y="700" type="line"/>
      <point x="215" y="700" type="line"/>
      <point x="215" y="0" type="line"/>
      <point x="76" y="0" type="line"/>
    </contour>
    <contour>
      <point x="220" y="848" type="curve" smooth="yes"/>
      <point x="220" y="891"/>
      <point x="255" y="922"/>
      <point x="298" y="922" type="curve" smooth="yes"/>
      <point x="341" y="922"/>
      <point x="376" y="891"/>
      <point x="376" y="848" type="curve" smooth="yes"/>
      <point x="376" y="805"/>
      <point x="341" y="774"/>
      <point x="298" y="774" type="curve" smooth="yes"/>
      <point x="255" y="774"/>
      <point x="220" y="805"/>
    </contour>
  </outline>
</glyph>
<glyph name="Ecaron" format="2">
  <advance width="586"/>
  <unicode hex="011A"/>
  <outline>
    <contour>
      <point x="168" y="0" type="line"/>
      <point x="168" y="121" type="line"/>
      <point x="521" y="121" type="line"/>
      <point x="521" y="0" type="line"/>
    </contour>
    <contour>
      <point x="168" y="579" type="line"/>
      <point x="168" y="700" type="line"/>
      <point x="521" y="700" type="line"/>
      <point x="521" y="579" type="line"/>
    </contour>
    <contour>
      <point x="168" y="312" type="line"/>
      <point x="168" y="431" type="line"/>
      <point x="501" y="431" type="line"/>
      <point x="501" y="312" type="line"/>
    </contour>
    <contour>
      <point x="76" y="700" type="line"/>
      <point x="215" y="700" type="line"/>
      <point x="215" y="0" type="line"/>
      <point x="76" y="0" type="line"/>
    </contour>
    <contour>
      <point x="298" y="887" type="line"/>
      <point x="395" y="976" type="line"/>
      <point x="484" y="914" type="line"/>
      <point x="298" y="774" type="line"/>
      <point x="112" y="914" type="line"/>
      <point x="201" y="976" type="line"/>
    </contour>
  </outline>
</glyph>
<glyph name="gcircumflex" format="2">
  <advance width="598"/>
  <unicode hex="011D"/>
  <outline>
    <contour>
      <point x="42" y="-32" type="curve"/>
      <point x="169" y="-32" type="line"/>
      <point x="172" y="-92"/>
      <point x="219" y="-129"/>
      <point x="287" y="-129" type="curve" smooth="yes"/>
      <point x="353" y="-129"/>
      <point x="411" y="-84"/>
      <point x="411" y="10" type="curve" smooth="yes"/>
      <point x="411" y="460" type="line"/>
      <point x="537" y="460" type="line"/>
      <point x="537" y="10" type="line" smooth="yes"/>
      <point x="537" y="-162"/>
      <point x="423" y="-236"/>
      <point x="291" y="-236" type="curve" smooth="yes"/>
      <point x="130" y="-236"/>
      <point x="50" y="-153"/>
    </contour>
    <contour>
      <point x="33" y="234" type="curve" smooth="yes"/>
      <point x="33" y="387"/>
      <point x="138" y="470"/>
      <point x="254" y="470" type="curve" smooth="yes"/>
      <point x="369" y="470"/>
      <point x="452" y="383"/>
      <point x="452" y="234" type="curve" smooth="yes"/>
      <point x="452" y="85"/>
      <point x="369" y="-1"/>
      <point x="254" y="-1" type="curve" smooth="yes"/>
      <point x="138" y="-1"/>
      <point x="33" y="81"/>
    </contour>
    <contour>
      <point x="168" y="234" type="curve" smooth="yes"/>
      <point x="168" y="152"/>
      <point x="224" y="106"/>
      <point x="292" y="106" type="curve" smooth="yes"/>
      <point x="349" y="106"/>
      <point x="411" y="150"/>
      <point x="411" y="234" type="curve" smooth="yes"/>
      <point x="411" y="318"/>
      <point x="349" y="363"/>
      <point x="292" y="363" type="curve" smooth="yes"/>
      <point x="224" y="363"/>
      <point x="168" y="316"/>
    </contour>
    <contour>
      <point x="302" y="619" type="line"/>
      <point x="205" y="530" type="line"/>
      <point x="116" y="592" type="line"/>
      <point x="302" y="732" type="line"/>
      <point x="488" y="592" type="line"/>
      <point x="399" y="530" type="line"/>
    </contour>
  </outline>
</glyph>
<glyph name="hbar" format="2">
  <advance width="555"/>
  <unicode hex="0127"/>
  <outline>
    <contour>
      <point x="194" y="780" type="line"/>
      <point x="194" y="0" type="line"/>
      <point x="64" y="0" type="line"/>
      <point x="64" y="780" type="line"/>
    </contour>
    <contour>
      <point x="361" y="280" type="line" smooth="yes"/>
      <point x="361" y="341"/>
      <point x="339" y="374"/>
      <point x="285" y="374" type="curve" smooth="yes"/>
      <point x="230" y="374"/>
      <point x="194" y="337"/>
      <point x="194" y="280" type="curve"/>
      <point x="168" y="280" type="line"/>
      <point x="168" y="389"/>
      <point x="225" y="475"/>
      <point x="333" y="475" type="curve" smooth="yes"/>
      <point x="441" y="475"/>
      <point x="491" y="414"/>
      <point x="491" y="299" type="curve" smooth="yes"/>
      <point x="491" y="0" type="line"/>
      <point x="361" y="0" type="line"/>
    </contour>
    <contour>
      <point x="5" y="606" type="line"/>
      <point x="5" y="719" type="line"/>
      <point x="331" y="719" type="line"/>
      <point x="331" y="606" type="line"/>
    </contour>
  </outline>
</glyph>
<glyph name="itilde" format="2">
  <advance width="271"/>
  <unicode hex="0129"/>
  <outline>
    <contour>
      <point x="72" y="460" type="line"/>
      <point x="199" y="460" type="line"/>
      <point x="199" y="0" type="line"/>
      <point x="72" y="0" type="line"/>
    </contour>
    <contour>
      <point x="-51" y="587" type="line"/>
      <point x="-41" y="636"/>
      <point x="5" y="678"/>
      <point x="63" y="678" type="curve" smooth="yes"/>
      <point x="129" y="678"/>
      <point x="140" y="628"/>
      <point x="196" y="628" type="curve" smooth="yes"/>
      <point x="219" y="628"/>
      <point x="239" y="647"/>
      <point x="259" y="679" type="curve"/>
      <point x="322" y="614" type="line"/>
      <point x="306" y="577"/>
      <point x="255" y="533"/>
      <point x="196" y="533" type="curve" smooth="yes"/>
      <point x="141" y="533"/>
      <point x="111" y="584"/>
      <point x="63" y="584" type="curve" smooth="yes"/>
      <point x="24" y="584"/>
      <point x="15" y="548"/>
      <point x="15" y="533" type="curve"/>
    </contour>
  </outline>
</glyph>
<glyph name="IJ" format="2">
  <advance width="583"/>
  <unicode hex="0132"/>
  <outline>
    <contour>
      <point x="210" y="-76" type="line"/>
      <point x="228" y="-96"/>
      <point x="258" y="-110"/>
      <point x="290" y="-110" type="curve" smooth="yes"/>
      <point x="320" y="-110"/>
      <point x="356" y="-88"/>
      <point x="356" y="-26" type="curve" smooth="yes"/>
      <point x="356" y="700" type="line"/>
      <point x="507" y="700" type="line"/>
      <point x="507" y="-56" type="line" smooth="yes"/>
      <point x="507" y="-182"/>
      <point x="416" y="-233"/>
      <point x="300" y="-233" type="curve" smooth="yes"/>
      <point x="230" y="-233"/>
      <point x="165" y="-203"/>
      <point x="133" y="-179" type="curve"/>
    </contour>
    <contour>
      <point x="76" y="700" type="line"/>
      <point x="221" y="700" type="line"/>
      <point x="221" y="0" type="line"/>
      <point x="76" y="0" type="line"/>
    </contour>
  </outline>
</glyph>
<glyph name="Jcircumflex" format="2">
  <advance width="302"/>
  <unicode hex="0134"/>
  <outline>
    <contour>
      <point x="-70" y="-76" type="line"/>
      <point x="-52" y="-96"/>
      <point x="-22" y="-110"/>
      <point x="10" y="-110" type="curve" smooth="yes"/>
      <point x="40" y="-110"/>
      <point x="76" y="-88"/>
      <point x="76" y="-26" type="curve" smooth="yes"/>
      <point x="76" y="700" type="line"/>
      <point x="227" y="700" type="line"/>
      <point x="227" y="-56" type="line" smooth="yes"/>
      <point x="227" y="-182"/>
      <point x="136" y="-233"/>
      <point x="20" y="-233" type="curve" smooth="yes"/>
      <point x="-50" y="-233"/>
      <point x="-116" y="-203"/>
      <point x="-148" y="-179" type="curve"/>
    </contour>
    <contour>
      <point x="151" y="863" type="line"/>
      <point x="54" y="774" type="line"/>
      <point x="-35" y="836" type="line"/>
      <point x="151" y="976" type="line"/>
      <point x="337" y="836" type="line"/>
      <point x="248" y="774" type="line"/>
    </contour>
  </outline>
</glyph>
<glyph name="jcircumflex" format="2">
  <advance width="265"/>
  <unicode hex="0135"/>
  <outline>
    <contour>
      <point x="-28" y="-88" type="line"/>
      <point x="-14" y="-108"/>
      <point x="2" y="-114"/>
      <point x="19" y="-114" type="curve" smooth="yes"/>
      <point x="49" y="-114"/>
      <point x="67" y="-92"/>
      <point x="67" y="-39" type="curve" smooth="yes"/>
      <point x="67" y="460" type="line"/>
      <point x="192" y="460" type="line"/>
      <point x="192" y="-69" type="line" smooth="yes"/>
      <point x="192" y="-174"/>
      <point x="137" y="-233"/>
      <point x="31" y="-233" type="curve" smooth="yes"/>
      <point x="-29" y="-233"/>
      <point x="-65" y="-206"/>
      <point x="-84" y="-186" type="curve"/>
    </contour>
    <contour>
      <point x="130" y="619" type="line"/>
      <point x="33" y="530" type="line"/>
      <point x="-56" y="592" type="line"/>
      <point x="130" y="732" type="line"/>
      <point x="316" y="592" type="line"/>
      <point x="227" y="530" type="line"/>
    </contour>
  </outline>
</glyph>
<glyph name="lcaron" format="2">
  <advance width="258"/>
  <unicode hex="013E"/>
  <outline>
    <contour>
      <point x="64" y="780" type="line"/>
      <point x="194" y="780" type="line"/>
      <point x="194" y="0" type="line"/>
      <point x="64" y="0" type="line"/>
    </contour>
    <contour>
      <point x="332" y="780" type="line"/>
      <point x="462" y="748" type="line"/>
      <point x="341" y="498" type="line"/>
      <point x="244" y="521" type="line"/>
    </contour>
  </outline>
</glyph>
<glyph name="Ldot" format="2">
  <advance width="504"/>
  <unicode hex="013F"/>
  <outline>
    <contour>
      <point x="76" y="700" type="line"/>
      <point x="219" y="700" type="line"/>
      <point x="219" y="125" type="line"/>
      <point x="498" y="125" type="line"/>
      <point x="498" y="0" type="line"/>
      <point x="76" y="0" type="line"/>
    </contour>
    <contour>
      <point x="302" y="426" type="curve" smooth="yes"/>
      <point x="302" y="470"/>
      <point x="338" y="507"/>
      <point x="385" y="507" type="curve" smooth="yes"/>
      <point x="432" y="507"/>
      <point x="467" y="470"/>
      <point x="467" y="426" type="curve" smooth="yes"/>
      <point x="467" y="382"/>
      <point x="432" y="345"/>
      <point x="385" y="345" type="curve" smooth="yes"/>
      <point x="338" y="345"/>
      <point x="302" y="382"/>
    </contour>
  </outline>
</glyph>
<glyph name="lslash" format="2">
  <advance width="258"/>
  <unicode hex="0142"/>
  <outline>
    <contour>
      <point x="-4" y="318" type="line"/>
      <point x="-37" y="386" type="line"/>
      <point x="270" y="584" type="line"/>
      <point x="303" y="516" type="line"/>
    </contour>
    <contour>
      <point x="64" y="780" type="line"/>
      <point x="194" y="780" type="line"/>
      <point x="194" y="0" type="line"/>
      <point x="64" y="0" type="line"/>
    </contour>
  </outline>
</glyph>
<glyph name="ncaron" format="2">
  <advance width="559"/>
  <unicode hex="0148"/>
  <outline>
    <contour>
      <point x="194" y="460" type="line"/>
      <point x="194" y="0" type="line"/>
      <point x="64" y="0" type="line"/>
      <point x="64" y="460" type="line"/>
    </contour>
    <contour>
      <point x="361" y="280" type="line" smooth="yes"/>
      <point x="361" y="341"/>
      <point x="339" y="374"/>
      <point x="285" y="374" type="curve" smooth="yes"/>
      <point x="230" y="374"/>
      <point x="194" y="337"/>
      <point x="194" y="280" type="curve"/>
      <point x="162" y="276" type="line"/>
      <point x="162" y="385"/>
      <point x="225" y="470"/>
      <point x="333" y="470" type="curve" smooth="yes"/>
      <point x="441" y="470"/>
      <point x="495" y="409"/>
      <point x="495" y="294" type="curve" smooth="yes"/>
      <point x="495" y="0" type="line"/>
      <point x="361" y="0" type="line"/>
    </contour>
    <contour>
      <point x="279" y="644" type="line"/>
      <point x="376" y="732" type="line"/>
      <point x="465" y="670" type="line"/>
      <point x="279" y="530" type="line"/>
      <point x="93" y="670" type="line"/>
      <point x="182" y="732" type="line"/>
    </contour>
  </outline>
</glyph>
<glyph name="omacron" format="2">
  <advance width="576"/>
  <unicode hex="014D"/>
  <outline>
    <contour>
      <point x="33" y="230" type="curve" smooth="yes"/>
      <point x="33" y="373"/>
      <point x="142" y="470"/>
      <point x="288" y="470" type="curve" smooth="yes"/>
      <point x="434" y="470"/>
      <point x="543" y="373"/>
      <point x="543" y="230" type="curve" smooth="yes"/>
      <point x="543" y="87"/>
      <point x="434" y="-10"/>
      <point x="288" y="-10" type="curve" smooth="yes"/>
      <point x="142" y="-10"/>
      <point x="33" y="87"/>
    </contour>
    <contour>
      <point x="166" y="230" type="curve" smooth="yes"/>
      <point x="166" y="151"/>
      <point x="220" y="100"/>
      <point x="288" y="100" type="curve" smooth="yes"/>
      <point x="356" y="100"/>
      <point x="411" y="151"/>
      <point x="411" y="230" type="curve" smooth="yes"/>
      <point x="411" y="309"/>
      <point x="356" y="361"/>
      <point x="288" y="361" type="curve" smooth="yes"/>
      <point x="220" y="361"/>
      <point x="166" y="309"/>
    </contour>
    <contour>
      <point x="106" y="530" type="line"/>
      <point x="106" y="644" type="line"/>
      <point x="471" y="644" type="line"/>
      <point x="471" y="530" type="line"/>
    </contour>
  </outline>
</glyph>
<glyph name="obreve" format="2">
  <advance width="576"/>
  <unicode hex="014F"/>
  <outline>
    <contour>
      <point x="33" y="230" type="curve" smooth="yes"/>
      <point x="33" y="373"/>
      <point x="142" y="470"/>
      <point x="288" y="470" type="curve" smooth="yes"/>
      <point x="434" y="470"/>
      <point x="543" y="373"/>
      <point x="543" y="230" type="curve" smooth="yes"/>
      <point x="543" y="87"/>
      <point x="434" y="-10"/>
      <point x="288" y="-10" type="curve" smooth="yes"/>
      <point x="142" y="-10"/>
      <point x="33" y="87"/>
    </contour>
    <contour>
      <point x="166" y="230" type="curve" smooth="yes"/>
      <point x="166" y="151"/>
      <point x="220" y="100"/>
      <point x="288" y="100" type="curve" smooth="yes"/>
      <point x="356" y="100"/>
      <point x="411" y="151"/>
      <point x="411" y="230" type="curve" smooth="yes"/>
      <point x="411" y="309"/>
      <point x="356" y="361"/>
      <point x="288" y="361" type="curve" smooth="yes"/>
      <point x="220" y="361"/>
      <point x="166" y="309"/>
    </contour>
    <contour>
      <point x="126" y="675" type="curve"/>
      <point x="216" y="675" type="line"/>
      <point x="216" y="643"/>
      <point x="240" y="611"/>
      <point x="288" y="611" type="curve" smooth="yes"/>
      <point x="336" y="611"/>
      <point x="360" y="643"/>
      <point x="360" y="675" type="curve"/>
      <point x="450" y="675" type="line"/>
      <point x="450" y="597"/>
      <point x="393" y="530"/>
      <point x="288" y="530" type="curve" smooth="yes"/>
      <point x="183" y="530"/>
      <point x="126" y="597"/>
    </contour>
  </outline>
</glyph>
<glyph name="racute" format="2">
  <advance width="390"/>
  <unicode hex="0155"/>
  <outline>
    <contour>
      <point x="192" y="460" type="line"/>
      <point x="192" y="0" type="line"/>
      <point x="64" y="0" type="line"/>
      <point x="64" y="460" type="line"/>
    </contour>
    <contour>
      <point x="326" y="324" type="line"/>
      <point x="308" y="340"/>
      <point x="293" y="350"/>
      <point x="267" y="350" type="curve" smooth="yes"/>
      <point x="218" y="350"/>
      <point x="192" y="309"/>
      <point x="192" y="243" type="curve"/>
      <point x="156" y="280" type="line"/>
      <point x="156" y="389"/>
      <point x="228" y="471"/>
      <point x="302" y="471" type="curve" smooth="yes"/>
      <point x="335" y="471"/>
      <point x="367" y="459"/>
      <point x="386" y="435" type="curve"/>
    </contour>
    <contour>
      <point x="376" y="681" type="line"/>
      <point x="196" y="531" type="line"/>
      <point x="124" y="570" type="line"/>
      <point x="274" y="730" type="line"/>
    </contour>
  </outline>
</glyph>
<glyph name="Rcaron" format="2">
  <advance width="620"/>
  <unicode hex="0158"/>
  <outline>
    <contour>
      <point x="235" y="326" type="line"/>
      <point x="387" y="326" type="line"/>
      <point x="615" y="0" type="line"/>
      <point x="445" y="0" type="line"/>
    </contour>
    <contour>
      <point x="76" y="700" type="line"/>
      <point x="219" y="700" type="line"/>
      <point x="219" y="0" type="line"/>
      <point x="76" y="0" type="line"/>
    </contour>
    <contour>
      <point x="164" y="577" type="line"/>
      <point x="164" y="700" type="line"/>
      <point x="311" y="700" type="line" smooth="yes"/>
      <point x="476" y="700"/>
      <point x="573" y="610"/>
      <point x="573" y="477" type="curve" smooth="yes"/>
      <point x="573" y="344"/>
      <point x="476" y="254"/>
      <point x="311" y="254" type="curve" smooth="yes"/>
      <point x="164" y="254" type="line"/>
      <point x="164" y="368" type="line"/>
      <point x="302" y="368" type="line" smooth="yes"/>
      <point x="377" y="368"/>
      <point x="425" y="406"/>
      <point x="425" y="473" type="curve" smooth="yes"/>
      <point x="425" y="540"/>
      <point x="377" y="577"/>
      <point x="302" y="577" type="curve" smooth="yes"/>
    </contour>
    <contour>
      <point x="295" y="887" type="line"/>
      <point x="392" y="976" type="line"/>
      <point x="481" y="914" type="line"/>
      <point x="295" y="774" type="line"/>
      <point x="109" y="914" type="line"/>
      <point x="198" y="976" type="line"/>
    </contour>
  </outline>
</glyph>
<glyph name="tcaron" format="2">
  <advance width="443"/>
  <unicode hex="0165"/>
  <outline>
    <contour>
      <point x="5" y="460" type="line"/>
      <point x="289" y="460" type="line"/>
      <point x="289" y="350" type="line"/>
      <point x="5" y="350" type="line"/>
    </contour>
    <contour>
      <point x="84" y="620" type="line"/>
      <point x="210" y="620" type="line"/>
      <point x="210" y="0" type="line"/>
      <point x="84" y="0" type="line"/>
    </contour>
    <contour>
      <point x="354" y="794" type="line"/>
      <point x="484" y="762" type="line"/>
      <point x="363" y="512" type="line"/>
      <point x="266" y="535" type="line"/>
    </contour>
  </outline>
</glyph>
<glyph name="Utilde" format="2">
  <advance width="677"/>
  <unicode hex="0168"/>
  <outline>
    <contour>
      <point x="71" y="700" type="line"/>
      <point x="214" y="700" type="line"/>
      <point x="214" y="239" type="line" smooth="yes"/>
      <point x="214" y="160"/>
      <point x="256" y="107"/>
      <point x="339" y="107" type="curve" smooth="yes"/>
      <point x="422" y="107"/>
      <point x="464" y="160"/>
      <point x="464" y="239" type="curve" smooth="yes"/>
      <point x="464" y="700" type="line"/>
      <point x="607" y="700" type="line"/>
      <point x="607" y="230" type="line" smooth="yes"/>
      <point x="607" y="65"/>
      <point x="493" y="-23"/>
      <point x="339" y="-23" type="curve" smooth="yes"/>
      <point x="185" y="-23"/>
      <point x="71" y="65"/>
      <point x="71" y="230" type="curve" smooth="yes"/>
    </contour>
    <contour>
      <point x="152" y="831" type="line"/>
      <point x="162" y="880"/>
      <point x="209" y="922"/>
      <point x="267" y="922" type="curve" smooth="yes"/>
      <point x="333" y="922"/>
      <point x="344" y="871"/>
      <point x="400" y="871" type="curve" smooth="yes"/>
      <point x="423" y="871"/>
      <point x="442" y="891"/>
      <point x="462" y="923" type="curve"/>
      <point x="526" y="858" type="line"/>
      <point x="510" y="821"/>
      <point x="459" y="777"/>
      <point x="400" y="777" type="curve" smooth="yes"/>
      <point x="345" y="777"/>
      <point x="314" y="828"/>
      <point x="266" y="828" type="curve" smooth="yes"/>
      <point x="227" y="828"/>
      <point x="218" y="792"/>
      <point x="218" y="777" type="curve"/>
    </contour>
  </outline>
</glyph>
<glyph name="Ubreve" format="2">
  <advance width="677"/>
  <unicode hex="016C"/>
  <outline>
    <contour>
      <point x="71" y="700" type="line"/>
      <point x="214" y="700" type="line"/>
      <point x="214" y="239" type="line" smooth="yes"/>
      <point x="214" y="160"/>
      <point x="256" y="107"/>
      <point x="339" y="107" type="curve" smooth="yes"/>
      <point x="422" y="107"/>
      <point x="464" y="160"/>
      <point x="464" y="239" type="curve" smooth="yes"/>
      <point x="464" y="700" type="line"/>
      <point x="607" y="700" type="line"/>
      <point x="607" y="230" type="line" smooth="yes"/>
      <point x="607" y="65"/>
      <point x="493" y="-23"/>
      <point x="339" y="-23" type="curve" smooth="yes"/>
      <point x="185" y="-23"/>
      <point x="71" y="65"/>
      <point x="71" y="230" type="curve" smooth="yes"/>
    </contour>
    <contour>
      <point x="177" y="919" type="curve"/>
      <point x="267" y="919" type="line"/>
      <point x="267" y="887"/>
      <point x="291" y="854"/>
      <point x="339" y="854" type="curve" smooth="yes"/>
      <point x="387" y="854"/>
      <point x="411" y="887"/>
      <point x="411" y="919" type="curve"/>
      <point x="501" y="919" type="line"/>
      <point x="501" y="841"/>
      <point x="444" y="774"/>
      <point x="339" y="774" type="curve" smooth="yes"/>
      <point x="234" y="774"/>
      <point x="177" y="841"/>
    </contour>
  </outline>
</glyph>
<glyph name="Wcircumflex" format="2">
  <advance width="1041"/>
  <unicode hex="0174"/>
  <outline>
    <contour>
      <point x="720" y="251" type="line"/>
      <point x="868" y="700" type="line"/>
      <point x="1036" y="700" type="line"/>
      <point x="742" y="-39" type="line"/>
      <point x="521" y="420" type="line"/>
      <point x="300" y="-39" type="line"/>
      <point x="6" y="700" type="line"/>
      <point x="174" y="700" type="line"/>
      <point x="322" y="251" type="line"/>
      <point x="521" y="735" type="line"/>
    </contour>
    <contour>
      <point x="521" y="884" type="line"/>
      <point x="424" y="795" type="line"/>
      <point x="335" y="857" type="line"/>
      <point x="521" y="997" type="line"/>
      <point x="707" y="857" type="line"/>
      <point x="618" y="795" type="line"/>
    </contour>
  </outline>
</glyph>
<glyph name="zdotaccent" format="2">
  <advance width="503"/>
  <unicode hex="017C"/>
  <outline>
    <contour>
      <point x="270" y="342" type="line"/>
      <point x="54" y="342" type="line"/>
      <point x="54" y="460" type="line"/>
      <point x="488" y="460" type="line"/>
      <point x="242" y="118" type="line"/>
      <point x="460" y="118" type="line"/>
      <point x="460" y="0" type="line"/>
      <point x="15" y="0" type="line"/>
    </contour>
    <contour>
      <point x="193" y="621" type="curve" smooth="yes"/>
      <point x="193" y="664"/>
      <point x="228" y="695"/>
      <point x="271" y="695" type="curve" smooth="yes"/>
      <point x="314" y="695"/>
      <point x="349" y="664"/>
      <point x="349" y="621" type="curve" smooth="yes"/>
      <point x="349" y="578"/>
      <point x="314" y="547"/>
      <point x="271" y="547" type="curve" smooth="yes"/>
      <point x="228" y="547"/>
      <point x="193" y="578"/>
    </contour>
  </outline>
</glyph>
<glyph name="uni0213" format="2">
  <advance width="390"/>
  <unicode hex="0213"/>
  <outline>
    <contour>
      <point x="192" y="460" type="line"/>
      <point x="192" y="0" type="line"/>
      <point x="64" y="0" type="line"/>
      <point x="64" y="460" type="line"/>
    </contour>
    <contour>
      <point x="326" y="324" type="line"/>
      <point x="308" y="340"/>
      <point x="293" y="350"/>
      <point x="267" y="350" type="curve" smooth="yes"/>
      <point x="218" y="350"/>
      <point x="192" y="309"/>
      <point x="192" y="243" type="curve"/>
      <point x="156" y="280" type="line"/>
      <point x="156" y="389"/>
      <point x="228" y="471"/>
      <point x="302" y="471" type="curve" smooth="yes"/>
      <point x="335" y="471"/>
      <point x="367" y="459"/>
      <point x="386" y="435" type="curve"/>
    </contour>
    <contour>
      <point x="63" y="531" type="curve"/>
      <point x="153" y="531" type="line"/>
      <point x="153" y="563"/>
      <point x="177" y="595"/>
      <point x="225" y="595" type="curve" smooth="yes"/>
      <point x="273" y="595"/>
      <point x="297" y="563"/>
      <point x="297" y="531" type="curve"/>
      <point x="388" y="531" type="line"/>
      <point x="388" y="609"/>
      <point x="330" y="675"/>
      <point x="225" y="675" type="curve" smooth="yes"/>
      <point x="120" y="675"/>
      <point x="63" y="609"/>
    </contour>
  </outline>
</glyph>
<glyph name="uni021B" format="2">
  <advance width="294"/>
  <unicode hex="021B"/>
  <outline>
    <contour>
      <point x="5" y="460" type="line"/>
      <point x="289" y="460" type="line"/>
      <point x="289" y="350" type="line"/>
      <point x="5" y="350" type="line"/>
    </contour>
    <contour>
      <point x="84" y="620" type="line"/>
      <point x="210" y="620" type="line"/>
      <point x="210" y="0" type="line"/>
      <point x="84" y="0" type="line"/>
    </contour>
    <contour>
      <point x="126.5" y="-60" type="line"/>
      <point x="255.5" y="-92" type="line"/>
      <point x="134.5" y="-342" type="line"/>
      <point x="38.5" y="-319" type="line"/>
    </contour>
  </outline>
</glyph>
<glyph name="uni0237" format="2">
  <advance width="265"/>
  <unicode hex="0237"/>
  <outline>
    <contour>
      <point x="-28" y="-88" type="line"/>
      <point x="-14" y="-108"/>
      <point x="2" y="-114"/>
      <point x="19" y="-114" type="curve" smooth="yes"/>
      <point x="49" y="-114"/>
      <point x="67" y="-92"/>
      <point x="67" y="-39" type="curve" smooth="yes"/>
      <point x="67" y="460" type="line"/>
      <point x="192" y="460" type="line"/>
      <point x="192" y="-69" type="line" smooth="yes"/>
      <point x="192" y="-174"/>
      <point x="137" y="-233"/>
      <point x="31" y="-233" type="curve" smooth="yes"/>
      <point x="-29" y="-233"/>
      <point x="-65" y="-206"/>
      <point x="-84" y="-186" type="curve"/>
    </contour>
  </outline>
</glyph>
<glyph name="dotaccent" format="2">
  <advance width="300"/>
  <unicode hex="02D9"/>
  <outline>
    <contour>
      <point x="72" y="806" type="curve" smooth="yes"/>
      <point x="72" y="849"/>
      <point x="107" y="880"/>
      <point x="150" y="880" type="curve" smooth="yes"/>
      <point x="193" y="880"/>
      <point x="228" y="849"/>
      <point x="228" y="806" type="curve" smooth="yes"/>
      <point x="228" y="763"/>
      <point x="193" y="732"/>
      <point x="150" y="732" type="curve" smooth="yes"/>
      <point x="107" y="732"/>
      <point x="72" y="763"/>
    </contour>
  </outline>
</glyph>
<glyph name="ring" format="2">
  <advance width="312"/>
  <unicode hex="02DA"/>
  <outline>
    <contour>
      <point x="38" y="774" type="curve" smooth="yes"/>
      <point x="38" y="840"/>
      <point x="92" y="885"/>
      <point x="156" y="885" type="curve" smooth="yes"/>
      <point x="220" y="885"/>
      <point x="274" y="840"/>
      <point x="274" y="774" type="curve" smooth="yes"/>
      <point x="274" y="708"/>
      <point x="220" y="663"/>
      <point x="156" y="663" type="curve" smooth="yes"/>
      <point x="92" y="663"/>
      <point x="38" y="708"/>
    </contour>
    <contour>
      <point x="108" y="774" type="curve" smooth="yes"/>
      <point x="108" y="743"/>
      <point x="131" y="725"/>
      <point x="156" y="725" type="curve" smooth="yes"/>
      <point x="181" y="725"/>
      <point x="204" y="743"/>
      <point x="204" y="774" type="curve" smooth="yes"/>
      <point x="204" y="805"/>
      <point x="181" y="824"/>
      <point x="156" y="824" type="curve" smooth="yes"/>
      <point x="131" y="824"/>
      <point x="108" y="805"/>
    </contour>
  </outline>
</glyph>
<glyph name="uni040D" format="2">
  <advance width="787"/>
  <unicode hex="040D"/>
  <outline>
    <contour>
      <point x="707" y="549" type="line"/>
      <point x="76" y="-35" type="line"/>
      <point x="81" y="151" type="line"/>
      <point x="712" y="735" type="line"/>
    </contour>
    <contour>
      <point x="215" y="700" type="line"/>
      <point x="215" y="114" type="line"/>
      <point x="76" y="-35" type="line"/>
      <point x="76" y="700" type="line"/>
    </contour>
    <contour>
      <point x="712" y="735" type="line"/>
      <point x="712" y="0" type="line"/>
      <point x="573" y="0" type="line"/>
      <point x="573" y="582" type="line"/>
    </contour>
    <contour>
      <point x="251" y="904" type="line"/>
      <point x="354" y="952" type="line"/>
      <point x="504" y="792" type="line"/>
      <point x="431" y="754" type="line"/>
    </contour>
  </outline>
</glyph>
<glyph name="uni0417" format="2">
  <advance width="649"/>
  <unicode hex="0417"/>
  <outline>
    <contour>
      <point x="298" y="341" type="curve"/>
      <point x="298" y="410" type="line"/>
      <point x="399" y="410"/>
      <point x="452" y="453"/>
      <point x="452" y="508" type="curve" smooth="yes"/>
      <point x="452" y="559"/>
      <point x="413" y="595"/>
      <point x="339" y="595" type="curve" smooth="yes"/>
      <point x="263" y="595"/>
      <point x="214" y="556"/>
      <point x="214" y="504" type="curve"/>
      <point x="81" y="504" type="line"/>
      <point x="81" y="624"/>
      <point x="176" y="712"/>
      <point x="339" y="712" type="curve" smooth="yes"/>
      <point x="505" y="712"/>
      <point x="595" y="626"/>
      <point x="595" y="521" type="curve" smooth="yes"/>
      <point x="595" y="407"/>
      <point x="466" y="341"/>
    </contour>
    <contour>
      <point x="341" y="-14" type="curve" smooth="yes"/>
      <point x="144" y="-14"/>
      <point x="51" y="91"/>
      <point x="51" y="211" type="curve"/>
      <point x="194" y="211" type="line"/>
      <point x="198" y="143"/>
      <point x="251" y="105"/>
      <point x="337" y="105" type="curve" smooth="yes"/>
      <point x="423" y="105"/>
      <point x="472" y="139"/>
      <point x="472" y="204" type="curve" smooth="yes"/>
      <point x="472" y="271"/>
      <point x="412" y="312"/>
      <point x="298" y="312" type="curve"/>
      <point x="298" y="388" type="line"/>
      <point x="479" y="388"/>
      <point x="615" y="330"/>
      <point x="615" y="189" type="curve" smooth="yes"/>
      <point x="615" y="68"/>
      <point x="520" y="-14"/>
    </contour>
  </outline>
</glyph>
<glyph name="uni041B" format="2">
  <advance width="735"/>
  <unicode hex="041B"/>
  <outline>
    <contour>
      <point x="656" y="700" type="line"/>
      <point x="656" y="0" type="line"/>
      <point x="510" y="0" type="line"/>
      <point x="510" y="570" type="line"/>
      <point x="254" y="570" type="line"/>
      <point x="254" y="279" type="line" smooth="yes"/>
      <point x="254" y="102"/>
      <point x="180" y="0"/>
      <point x="10" y="0" type="curve"/>
      <point x="10" y="121" type="line"/>
      <point x="74" y="121"/>
      <point x="112" y="185"/>
      <point x="112" y="278" type="curve" smooth="yes"/>
      <point x="112" y="700" type="line"/>
    </contour>
  </outline>
</glyph>
<glyph name="uni0423" format="2">
  <advance width="601"/>
  <unicode hex="0423"/>
  <outline>
    <contour>
      <point x="608" y="700" type="line"/>
      <point x="279" y="0" type="line"/>
      <point x="130" y="0" type="line"/>
      <point x="223" y="211" type="line"/>
      <point x="-6" y="700" type="line"/>
      <point x="157" y="700" type="line"/>
      <point x="330" y="267" type="line"/>
      <point x="263" y="269" type="line"/>
      <point x="457" y="700" type="line"/>
    </contour>
  </outline>
</glyph>
<glyph name="uni0428" format="2">
  <advance width="1052"/>
  <unicode hex="0428"/>
  <outline>
    <contour>
      <point x="829" y="130" type="line"/>
      <point x="829" y="700" type="line"/>
      <point x="972" y="700" type="line"/>
      <point x="972" y="0" type="line"/>
      <point x="80" y="0" type="line"/>
      <point x="80" y="700" type="line"/>
      <point x="223" y="700" type="line"/>
      <point x="223" y="130" type="line"/>
      <point x="456" y="130" type="line"/>
      <point x="456" y="700" type="line"/>
      <point x="596" y="700" type="line"/>
      <point x="596" y="130" type="line"/>
    </contour>
  </outline>
</glyph>
<glyph name="uni0432" format="2">
  <advance width="502"/>
  <unicode hex="0432"/>
  <outline>
    <contour>
      <point x="150" y="240" type="line"/>
      <point x="305" y="240" type="line" smooth="yes"/>
      <point x="400" y="240"/>
      <point x="473" y="214"/>
      <point x="473" y="125" type="curve" smooth="yes"/>
      <point x="473" y="56"/>
      <point x="430" y="0"/>
      <point x="325" y="0" type="curve" smooth="yes"/>
      <point x="150" y="0" type="line"/>
      <point x="150" y="87" type="line"/>
      <point x="283" y="87" type="line" smooth="yes"/>
      <point x="330" y="87"/>
      <point x="349" y="112"/>
      <point x="349" y="139" type="curve" smooth="yes"/>
      <point x="349" y="166"/>
      <point x="330" y="189"/>
      <point x="283" y="189" type="curve" smooth="yes"/>
      <point x="150" y="189" type="line"/>
    </contour>
    <contour>
      <point x="150" y="220" type="line"/>
      <point x="150" y="276" type="line"/>
      <point x="273" y="276" type="line" smooth="yes"/>
      <point x="308" y="276"/>
      <point x="329" y="298"/>
      <point x="329" y="325" type="curve" smooth="yes"/>
      <point x="329" y="352"/>
      <point x="308" y="373"/>
      <point x="273" y="373" type="curve" smooth="yes"/>
      <point x="150" y="373" type="line"/>
      <point x="150" y="460" type="line"/>
      <point x="295" y="460" type="line" smooth="yes"/>
      <point x="380" y="460"/>
      <point x="453" y="424"/>
      <point x="453" y="335" type="curve" smooth="yes"/>
      <point x="453" y="256"/>
      <point x="380" y="220"/>
      <point x="295" y="220" type="curve" smooth="yes"/>
    </contour>
    <contour>
      <point x="75" y="460" type="line"/>
      <point x="200" y="460" type="line"/>
      <point x="200" y="0" type="line"/>
      <point x="75" y="0" type="line"/>
    </contour>
  </outline>
</glyph>
<glyph name="uni0434" format="2">
  <advance width="689"/>
  <unicode hex="0434"/>
  <outline>
    <contour>
      <point x="342" y="292" type="line"/>
      <point x="225" y="30" type="line"/>
      <point x="96" y="52" type="line"/>
      <point x="342" y="495" type="line"/>
      <point x="589" y="52" type="line"/>
      <point x="460" y="30" type="line"/>
    </contour>
    <contour>
      <point x="521" y="0" type="line"/>
      <point x="168" y="0" type="line"/>
      <point x="168" y="-90" type="line"/>
      <point x="40" y="-90" type="line"/>
      <point x="40" y="105" type="line"/>
      <point x="645" y="105" type="line"/>
      <point x="645" y="-90" type="line"/>
      <point x="521" y="-90" type="line"/>
    </contour>
  </outline>
</glyph>
<glyph name="uni043B" format="2">
  <advance width="603"/>
  <unicode hex="043B"/>
  <outline>
    <contour>
      <point x="523" y="460" type="line"/>
      <point x="523" y="0" type="line"/>
      <point x="398" y="0" type="line"/>
      <point x="398" y="342" type="line"/>
      <point x="208" y="342" type="line"/>
      <point x="208" y="160" type="line" smooth="yes"/>
      <point x="208" y="51"/>
      <point x="157" y="0"/>
      <point x="10" y="0" type="curve"/>
      <point x="10" y="116" type="line"/>
      <point x="50" y="116"/>
      <point x="83" y="129"/>
      <point x="83" y="186" type="curve" smooth="yes"/>
      <point x="83" y="460" type="line"/>
    </contour>
  </outline>
</glyph>
<glyph name="uni043C" format="2">
  <advance width="641"/>
  <unicode hex="043C"/>
  <outline>
    <contour>
      <point x="503" y="0" type="line"/>
      <point x="437" y="330" type="line"/>
      <point x="504" y="495" type="line"/>
      <point x="637" y="0" type="line"/>
    </contour>
    <contour>
      <point x="289" y="112" type="line"/>
      <point x="504" y="495" type="line"/>
      <point x="514" y="305" type="line"/>
      <point x="319" y="-31" type="line"/>
    </contour>
    <contour>
      <point x="319" y="-31" type="line"/>
      <point x="128" y="305" type="line"/>
      <point x="138" y="495" type="line"/>
      <point x="349" y="112" type="line"/>
    </contour>
    <contour>
      <point x="5" y="0" type="line"/>
      <point x="138" y="495" type="line"/>
      <point x="205" y="330" type="line"/>
      <point x="138" y="0" type="line"/>
    </contour>
  </outline>
</glyph>
<glyph name="uni043D" format="2">
  <advance width="599"/>
  <unicode hex="043D"/>
  <outline>
    <contour>
      <point x="111" y="192" type="line"/>
      <point x="111" y="293" type="line"/>
      <point x="473" y="293" type="line"/>
      <point x="473" y="192" type="line"/>
    </contour>
    <contour>
      <point x="410" y="460" type="line"/>
      <point x="535" y="460" type="line"/>
      <point x="535" y="0" type="line"/>
      <point x="410" y="0" type="line"/>
    </contour>
    <contour>
      <point x="64" y="460" type="line"/>
      <point x="190" y="460" type="line"/>
      <point x="190" y="0" type="line"/>
      <point x="64" y="0" type="line"/>
    </contour>
  </outline>
</glyph>
<glyph name="uni0444" format="2">
  <advance width="642"/>
  <unicode hex="0444"/>
  <outline>
    <contour>
      <point x="259" y="560" type="line"/>
      <point x="383" y="560" type="line"/>
      <point x="383" y="-100" type="line"/>
      <point x="259" y="-100" type="line"/>
    </contour>
    <contour>
      <point x="33" y="230" type="curve" smooth="yes"/>
      <point x="33" y="373"/>
      <point x="142" y="470"/>
      <point x="321" y="470" type="curve" smooth="yes"/>
      <point x="500" y="470"/>
      <point x="609" y="373"/>
      <point x="609" y="230" type="curve" smooth="yes"/>
      <point x="609" y="87"/>
      <point x="500" y="-10"/>
      <point x="321" y="-10" type="curve" smooth="yes"/>
      <point x="142" y="-10"/>
      <point x="33" y="87"/>
    </contour>
    <contour>
      <point x="153" y="230" type="curve" smooth="yes"/>
      <point x="153" y="151"/>
      <point x="207" y="100"/>
      <point x="321" y="100" type="curve" smooth="yes"/>
      <point x="435" y="100"/>
      <point x="489" y="151"/>
      <point x="489" y="230" type="curve" smooth="yes"/>
      <point x="489" y="309"/>
      <point x="435" y="361"/>
      <point x="321" y="361" type="curve" smooth="yes"/>
      <point x="207" y="361"/>
      <point x="153" y="309"/>
    </contour>
  </outline>
</glyph>
<glyph name="uni044B" format="2">
  <advance width="727"/>
  <unicode hex="044B"/>
  <outline>
    <contour>
      <point x="533" y="460" type="line"/>
      <point x="663" y="460" type="line"/>
      <point x="663" y="0" type="line"/>
      <point x="533" y="0" type="line"/>
    </contour>
    <contour>
      <point x="64" y="460" type="line"/>
      <point x="194" y="460" type="line"/>
      <point x="194" y="0" type="line"/>
      <point x="64" y="0" type="line"/>
    </contour>
    <contour>
      <point x="161" y="210" type="line"/>
      <point x="161" y="299" type="line"/>
      <point x="304" y="299" type="line" smooth="yes"/>
      <point x="399" y="299"/>
      <point x="472" y="255"/>
      <point x="472" y="156" type="curve" smooth="yes"/>
      <point x="472" y="57"/>
      <point x="399" y="0"/>
      <point x="304" y="0" type="curve" smooth="yes"/>
      <point x="161" y="0" type="line"/>
      <point x="161" y="102" type="line"/>
      <point x="285" y="102" type="line" smooth="yes"/>
      <point x="326" y="102"/>
      <point x="349" y="123"/>
      <point x="349" y="156" type="curve" smooth="yes"/>
      <point x="349" y="189"/>
      <point x="326" y="210"/>
      <point x="285" y="210" type="curve" smooth="yes"/>
    </contour>
  </outline>
</glyph>
<glyph name="uni045D" format="2">
  <advance width="577"/>
  <unicode hex="045D"/>
  <outline>
    <contour>
      <point x="505" y="345" type="line"/>
      <point x="67" y="-35" type="line"/>
      <point x="72" y="115" type="line"/>
      <point x="510" y="495" type="line"/>
    </contour>
    <contour>
      <point x="192" y="460" type="line"/>
      <point x="192" y="97" type="line"/>
      <point x="67" y="-35" type="line"/>
      <point x="67" y="460" type="line"/>
    </contour>
    <contour>
      <point x="510" y="495" type="line"/>
      <point x="510" y="0" type="line"/>
      <point x="385" y="0" type="line"/>
      <point x="385" y="363" type="line"/>
    </contour>
    <contour>
      <point x="126" y="705" type="line"/>
      <point x="229" y="754" type="line"/>
      <point x="379" y="594" type="line"/>
      <point x="306" y="555" type="line"/>
    </contour>
  </outline>
</glyph>
<glyph name="uni1E9E" format="2">
  <advance width="837"/>
  <unicode hex="1E9E"/>
  <outline>
    <contour>
      <point x="527" y="-14" type="curve" smooth="yes"/>
      <point x="357" y="-14"/>
      <point x="280" y="102"/>
      <point x="280" y="211" type="curve"/>
      <point x="409" y="211" type="line"/>
      <point x="409" y="149"/>
      <point x="457" y="105"/>
      <point x="527" y="105" type="curve" smooth="yes"/>
      <point x="598" y="105"/>
      <point x="636" y="141"/>
      <point x="636" y="204" type="curve" smooth="yes"/>
      <point x="636" y="277"/>
      <point x="574" y="312"/>
      <point x="484" y="312" type="curve"/>
      <point x="484" y="380" type="line"/>
      <point x="649" y="380"/>
      <point x="779" y="324"/>
      <point x="779" y="185" type="curve" smooth="yes"/>
      <point x="779" y="66"/>
      <point x="674" y="-14"/>
    </contour>
    <contour>
      <point x="484" y="345" type="curve"/>
      <point x="484" y="411" type="line"/>
      <point x="565" y="411"/>
      <point x="612" y="451"/>
      <point x="612" y="508" type="curve" smooth="yes"/>
      <point x="612" y="561"/>
      <point x="559" y="596"/>
      <point x="459" y="596" type="curve" smooth="yes"/>
      <point x="334" y="596"/>
      <point x="223" y="528"/>
      <point x="223" y="351" type="curve" smooth="yes"/>
      <point x="223" y="0" type="line"/>
      <point x="80" y="0" type="line"/>
      <point x="80" y="369" type="line" smooth="yes"/>
      <point x="80" y="589"/>
      <point x="235" y="710"/>
      <point x="453" y="710" type="curve" smooth="yes"/>
      <point x="641" y="710"/>
      <point x="759" y="639"/>
      <point x="759" y="525" type="curve" smooth="yes"/>
      <point x="759" y="416"/>
      <point x="649" y="345"/>
    </contour>
  </outline>
</glyph>
<glyph name="endash" format="2">
  <advance width="770"/>
  <unicode hex="2013"/>
  <outline>
    <contour>
      <point x="70" y="181" type="line"/>
      <point x="70" y="294" type="line"/>
      <point x="696" y="294" type="line"/>
      <point x="696" y="181" type="line"/>
    </contour>
  </outline>
</glyph>
<glyph name="quotesinglbase" format="2">
  <advance width="313"/>
  <unicode hex="201A"/>
  <outline>
    <contour>
      <point x="116" y="80" type="line"/>
      <point x="254" y="80" type="line"/>
      <point x="152" y="-167" type="line"/>
      <point x="60" y="-167" type="line"/>
    </contour>
  </outline>
</glyph>
<glyph name="quotedblleft" format="2">
  <advance width="535"/>
  <unicode hex="201C"/>
  <outline>
    <contour>
      <point x="208" y="453" type="line"/>
      <point x="70" y="453" type="line"/>
      <point x="172" y="700" type="line"/>
      <point x="264" y="700" type="line"/>
    </contour>
    <contour>
      <point x="430" y="453" type="line"/>
      <point x="292" y="453" type="line"/>
      <point x="394" y="700" type="line"/>
      <point x="486" y="700" type="line"/>
    </contour>
  </outline>
</glyph>
<glyph name="bullet" format="2">
  <advance width="300"/>
  <unicode hex="2022"/>
  <outline>
    <contour>
      <point x="76" y="434" type="curve" smooth="yes"/>
      <point x="76" y="478"/>
      <point x="111" y="515"/>
      <point x="158" y="515" type="curve" smooth="yes"/>
      <point x="205" y="515"/>
      <point x="240" y="478"/>
      <point x="240" y="434" type="curve" smooth="yes"/>
      <point x="240" y="390"/>
      <point x="205" y="354"/>
      <point x="158" y="354" type="curve" smooth="yes"/>
      <point x="111" y="354"/>
      <point x="76" y="390"/>
    </contour>
  </outline>
</glyph>
<glyph name="uni2070" format="2">
  <advance width="384"/>
  <unicode hex="2070"/>
  <outline>
    <contour>
      <point x="107" y="490" type="curve" smooth="yes"/>
      <point x="107" y="405"/>
      <point x="140" y="348"/>
      <point x="192" y="348" type="curve" smooth="yes"/>
      <point x="244" y="348"/>
      <point x="278" y="405"/>
      <point x="278" y="490" type="curve" smooth="yes"/>
      <point x="278" y="575"/>
      <point x="244" y="632"/>
      <point x="192" y="632" type="curve" smooth="yes"/>
      <point x="140" y="632"/>
      <point x="107" y="575"/>
    </contour>
    <contour>
      <point x="24" y="490" type="curve" smooth="yes"/>
      <point x="24" y="623"/>
      <point x="92" y="707"/>
      <point x="192" y="707" type="curve" smooth="yes"/>
      <point x="294" y="707"/>
      <point x="361" y="623"/>
      <point x="361" y="490" type="curve" smooth="yes"/>
      <point x="361" y="357"/>
      <point x="294" y="273"/>
      <point x="192" y="273" type="curve" smooth="yes"/>
      <point x="92" y="273"/>
      <point x="24" y="357"/>
    </contour>
  </outline>
</glyph>
<glyph name="uni2075" format="2">
  <advance width="377"/>
  <unicode hex="2075"/>
  <outline>
    <contour>
      <point x="350" y="413" type="curve" smooth="yes"/>
      <point x="350" y="315"/>
      <point x="269" y="271"/>
      <point x="188" y="271" type="curve" smooth="yes"/>
      <point x="111" y="271"/>
      <point x="62" y="300"/>
      <point x="26" y="335" type="curve"/>
      <point x="66" y="403" type="line"/>
      <point x="95" y="372"/>
      <point x="136" y="350"/>
      <point x="172" y="350" type="curve" smooth="yes"/>
      <point x="226" y="350"/>
      <point x="257" y="375"/>
      <point x="257" y="421" type="curve" smooth="yes"/>
      <point x="257" y="467"/>
      <point x="217" y="491"/>
      <point x="172" y="491" type="curve" smooth="yes"/>
      <point x="137" y="491"/>
      <point x="101" y="485"/>
      <point x="58" y="461" type="curve"/>
      <point x="116" y="509" type="line"/>
      <point x="147" y="542"/>
      <point x="184" y="552"/>
      <point x="224" y="552" type="curve" smooth="yes"/>
      <point x="292" y="552"/>
      <point x="350" y="499"/>
    </contour>
    <contour>
      <point x="179" y="623" type="line"/>
      <point x="145" y="512" type="line"/>
      <point x="58" y="461" type="line"/>
      <point x="115" y="698" type="line"/>
      <point x="344" y="698" type="line"/>
      <point x="344" y="623" type="line"/>
    </contour>
  </outline>
</glyph>
<glyph name="uni2085" format="2">
  <advance width="383"/>
  <unicode hex="2085"/>
  <outline>
    <contour>
      <point x="352" y="133" type="curve" smooth="yes"/>
      <point x="352" y="35"/>
      <point x="271" y="-9"/>
      <point x="190" y="-9" type="curve" smooth="yes"/>
      <point x="113" y="-9"/>
      <point x="64" y="20"/>
      <point x="28" y="55" type="curve"/>
      <point x="68" y="123" type="line"/>
      <point x="97" y="92"/>
      <point x="138" y="70"/>
      <point x="174" y="70" type="curve" smooth="yes"/>
      <point x="228" y="70"/>
      <point x="260" y="95"/>
      <point x="260" y="141" type="curve" smooth="yes"/>
      <point x="260" y="187"/>
      <point x="219" y="211"/>
      <point x="174" y="211" type="curve" smooth="yes"/>
      <point x="139" y="211"/>
      <point x="103" y="205"/>
      <point x="60" y="181" type="curve"/>
      <point x="118" y="229" type="line"/>
      <point x="149" y="262"/>
      <point x="186" y="272"/>
      <point x="226" y="272" type="curve" smooth="yes"/>
      <point x="294" y="272"/>
      <point x="352" y="219"/>
    </contour>
    <contour>
      <point x="181" y="343" type="line"/>
      <point x="147" y="232" type="line"/>
      <point x="60" y="181" type="line"/>
      <point x="117" y="418" type="line"/>
      <point x="346" y="418" type="line"/>
      <point x="346" y="343" type="line"/>
    </contour>
  </outline>
</glyph>
<glyph name="uni2089" format="2">
  <advance width="382"/>
  <unicode hex="2089"/>
  <outline>
    <contour>
      <point x="265" y="278" type="curve" smooth="yes"/>
      <point x="265" y="326"/>
      <point x="231" y="356"/>
      <point x="187" y="356" type="curve" smooth="yes"/>
      <point x="143" y="356"/>
      <point x="110" y="326"/>
      <point x="110" y="278" type="curve" smooth="yes"/>
      <point x="110" y="230"/>
      <point x="143" y="198"/>
      <point x="187" y="198" type="curve" smooth="yes"/>
      <point x="231" y="198"/>
      <point x="265" y="230"/>
    </contour>
    <contour>
      <point x="181" y="3" type="line"/>
      <point x="71" y="3" type="line"/>
      <point x="206" y="162" type="line"/>
      <point x="221" y="167" type="line"/>
      <point x="201" y="146"/>
      <point x="182" y="141"/>
      <point x="153" y="141" type="curve" smooth="yes"/>
      <point x="89" y="141"/>
      <point x="25" y="196"/>
      <point x="25" y="278" type="curve" smooth="yes"/>
      <point x="25" y="376"/>
      <point x="97" y="431"/>
      <point x="187" y="431" type="curve" smooth="yes"/>
      <point x="277" y="431"/>
      <point x="350" y="376"/>
      <point x="350" y="278" type="curve" smooth="yes"/>
      <point x="350" y="236"/>
      <point x="331" y="200"/>
      <point x="307" y="170" type="curve" smooth="yes"/>
    </contour>
  </outline>
</glyph>
<glyph name="uni2151" format="2">
  <advance width="853"/>
  <unicode hex="2151"/>
  <outline>
    <contour>
      <point x="590" y="700" type="line"/>
      <point x="694" y="700" type="line"/>
      <point x="174" y="0" type="line"/>
      <point x="70" y="0" type="line"/>
    </contour>
    <contour>
      <point x="26" y="584" type="line"/>
      <point x="26" y="662" type="line"/>
      <point x="210" y="701" type="line"/>
      <point x="210" y="274" type="line"/>
      <point x="126" y="274" type="line"/>
      <point x="126" y="611" type="line"/>
    </contour>
    <contour>
      <point x="747" y="278" type="curve" smooth="yes"/>
      <point x="747" y="326"/>
      <point x="714" y="356"/>
      <point x="670" y="356" type="curve" smooth="yes"/>
      <point x="626" y="356"/>
      <point x="592" y="326"/>
      <point x="592" y="278" type="curve" smooth="yes"/>
      <point x="592" y="230"/>
      <point x="626" y="198"/>
      <point x="670" y="198" type="curve" smooth="yes"/>
      <point x="714" y="198"/>
      <point x="747" y="230"/>
    </contour>
    <contour>
      <point x="663" y="3" type="line"/>
      <point x="553" y="3" type="line"/>
      <point x="688" y="162" type="line"/>
      <point x="704" y="167" type="line"/>
      <point x="684" y="146"/>
      <point x="664" y="141"/>
      <point x="635" y="141" type="curve" smooth="yes"/>
      <point x="571" y="141"/>
      <point x="507" y="196"/>
      <point x="507" y="278" type="curve" smooth="yes"/>
      <point x="507" y="376"/>
      <point x="580" y="431"/>
      <point x="670" y="431" type="curve" smooth="yes"/>
      <point x="760" y="431"/>
      <point x="832" y="376"/>
      <point x="832" y="278" type="curve" smooth="yes"/>
      <point x="832" y="236"/>
      <point x="814" y="200"/>
      <point x="790" y="170" type="curve" smooth="yes"/>
    </contour>
  </outline>
</glyph>
<glyph name="uni2155" format="2">
  <advance width="826"/>
  <unicode hex="2155"/>
  <outline>
    <contour>
      <point x="590" y="700" type="line"/>
      <point x="694" y="700" type="line"/>
      <point x="174" y="0" type="line"/>
      <point x="70" y="0" type="line"/>
    </contour>
    <contour>
      <point x="26" y="584" type="line"/>
      <point x="26" y="662" type="line"/>
      <point x="210" y="701" type="line"/>
      <point x="210" y="274" type="line"/>
      <point x="126" y="274" type="line"/>
      <point x="126" y="611" type="line"/>
    </contour>
    <contour>
      <point x="801" y="133" type="curve" smooth="yes"/>
      <point x="801" y="35"/>
      <point x="719" y="-9"/>
      <point x="638" y="-9" type="curve" smooth="yes"/>
      <point x="561" y="-9"/>
      <point x="512" y="20"/>
      <point x="476" y="55" type="curve"/>
      <point x="517" y="123" type="line"/>
      <point x="546" y="92"/>
      <point x="587" y="70"/>
      <point x="623" y="70" type="curve" smooth="yes"/>
      <point x="677" y="70"/>
      <point x="708" y="95"/>
      <point x="708" y="141" type="curve" smooth="yes"/>
      <point x="708" y="187"/>
      <point x="668" y="211"/>
      <point x="623" y="211" type="curve" smooth="yes"/>
      <point x="588" y="211"/>
      <point x="551" y="205"/>
      <point x="508" y="181" type="curve"/>
      <point x="567" y="229" type="line"/>
      <point x="598" y="262"/>
      <point x="634" y="272"/>
      <point x="674" y="272" type="curve" smooth="yes"/>
      <point x="742" y="272"/>
      <point x="801" y="219"/>
    </contour>
    <contour>
      <point x="629" y="343" type="line"/>
      <point x="596" y="232" type="line"/>
      <point x="508" y="181" type="line"/>
      <point x="566" y="418" type="line"/>
      <point x="795" y="418" type="line"/>
      <point x="795" y="343" type="line"/>
    </contour>
  </outline>
</glyph>
<glyph name="uni215A" format="2">
  <advance width="907"/>
  <unicode hex="215A"/>
  <outline>
    <contour>
      <point x="694" y="700" type="line"/>
      <point x="798" y="700" type="line"/>
      <point x="278" y="0" type="line"/>
      <point x="174" y="0" type="line"/>
    </contour>
    <contour>
      <point x="355" y="413" type="curve" smooth="yes"/>
      <point x="355" y="315"/>
      <point x="273" y="271"/>
      <point x="192" y="271" type="curve" smooth="yes"/>
      <point x="115" y="271"/>
      <point x="66" y="300"/>
      <point x="30" y="335" type="curve"/>
      <point x="70" y="403" type="line"/>
      <point x="99" y="372"/>
      <point x="140" y="350"/>
      <point x="176" y="350" type="curve" smooth="yes"/>
      <point x="230" y="350"/>
      <point x="262" y="375"/>
      <point x="262" y="421" type="curve" smooth="yes"/>
      <point x="262" y="467"/>
      <point x="221" y="491"/>
      <point x="176" y="491" type="curve" smooth="yes"/>
      <point x="141" y="491"/>
      <point x="105" y="485"/>
      <point x="62" y="461" type="curve"/>
      <point x="120" y="509" type="line"/>
      <point x="151" y="542"/>
      <point x="188" y="552"/>
      <point x="228" y="552" type="curve" smooth="yes"/>
      <point x="296" y="552"/>
      <point x="355" y="499"/>
    </contour>
    <contour>
      <point x="183" y="623" type="line"/>
      <point x="149" y="512" type="line"/>
      <point x="62" y="461" type="line"/>
      <point x="119" y="698" type="line"/>
      <point x="348" y="698" type="line"/>
      <point x="348" y="623" type="line"/>
    </contour>
    <contour>
      <point x="641" y="142" type="curve" smooth="yes"/>
      <point x="641" y="94"/>
      <point x="675" y="64"/>
      <point x="719" y="64" type="curve" smooth="yes"/>
      <point x="763" y="64"/>
      <point x="796" y="94"/>
      <point x="796" y="142" type="curve" smooth="yes"/>
      <point x="796" y="190"/>
      <point x="763" y="222"/>
      <point x="719" y="222" type="curve" smooth="yes"/>
      <point x="675" y="222"/>
      <point x="641" y="190"/>
    </contour>
    <contour>
      <point x="726" y="417" type="line"/>
      <point x="835" y="417" type="line"/>
      <point x="700" y="258" type="line"/>
      <point x="685" y="253" type="line"/>
      <point x="705" y="274"/>
      <point x="724" y="279"/>
      <point x="753" y="279" type="curve" smooth="yes"/>
      <point x="817" y="279"/>
      <point x="881" y="224"/>
      <point x="881" y="142" type="curve" smooth="yes"/>
      <point x="881" y="44"/>
      <point x="809" y="-11"/>
      <point x="719" y="-11" type="curve" smooth="yes"/>
      <point x="629" y="-11"/>
      <point x="556" y="44"/>
      <point x="556" y="142" type="curve" smooth="yes"/>
      <point x="556" y="184"/>
      <point x="575" y="220"/>
      <point x="599" y="250" type="curve" smooth="yes"/>
    </contour>
  </outline>
</glyph>
<glyph name="threeeighths" format="2">
  <advance width="920"/>
  <unicode hex="215C"/>
  <outline>
    <contour>
      <point x="672" y="700" type="line"/>
      <point x="776" y="700" type="line"/>
      <point x="256" y="0" type="line"/>
      <point x="152" y="0" type="line"/>
    </contour>
    <contour>
      <point x="155" y="484" type="curve"/>
      <point x="155" y="526" type="line"/>
      <point x="204" y="526"/>
      <point x="235" y="554"/>
      <point x="235" y="588" type="curve" smooth="yes"/>
      <point x="235" y="618"/>
      <point x="217" y="637"/>
      <point x="182" y="637" type="curve" smooth="yes"/>
      <point x="148" y="637"/>
      <point x="123" y="615"/>
      <point x="123" y="583" type="curve"/>
      <point x="43" y="583" type="line"/>
      <point x="43" y="654"/>
      <point x="100" y="707"/>
      <point x="183" y="707" type="curve" smooth="yes"/>
      <point x="271" y="707"/>
      <point x="321" y="655"/>
      <point x="321" y="592" type="curve" smooth="yes"/>
      <point x="321" y="524"/>
      <point x="249" y="484"/>
    </contour>
    <contour>
      <point x="178" y="271" type="curve" smooth="yes"/>
      <point x="83" y="271"/>
      <point x="25" y="336"/>
      <point x="25" y="407" type="curve"/>
      <point x="111" y="407" type="line"/>
      <point x="111" y="366"/>
      <point x="142" y="343"/>
      <point x="181" y="343" type="curve" smooth="yes"/>
      <point x="220" y="343"/>
      <point x="247" y="362"/>
      <point x="247" y="402" type="curve" smooth="yes"/>
      <point x="247" y="442"/>
      <point x="214" y="467"/>
      <point x="155" y="467" type="curve"/>
      <point x="155" y="513" type="line"/>
      <point x="257" y="513"/>
      <point x="333" y="478"/>
      <point x="333" y="394" type="curve" smooth="yes"/>
      <point x="333" y="322"/>
      <point x="272" y="271"/>
    </contour>
    <contour>
      <point x="607" y="319" type="curve" smooth="yes"/>
      <point x="607" y="386"/>
      <point x="667" y="429"/>
      <point x="741" y="429" type="curve" smooth="yes"/>
      <point x="815" y="429"/>
      <point x="875" y="386"/>
      <point x="875" y="319" type="curve" smooth="yes"/>
      <point x="875" y="246"/>
      <point x="810" y="208"/>
      <point x="741" y="208" type="curve" smooth="yes"/>
      <point x="672" y="208"/>
      <point x="607" y="246"/>
    </contour>
    <contour>
      <point x="688" y="310" type="curve" smooth="yes"/>
      <point x="688" y="278"/>
      <point x="711" y="256"/>
      <point x="741" y="256" type="curve" smooth="yes"/>
      <point x="771" y="256"/>
      <point x="794" y="278"/>
      <point x="794" y="310" type="curve" smooth="yes"/>
      <point x="794" y="342"/>
      <point x="772" y="364"/>
      <point x="741" y="364" type="curve" smooth="yes"/>
      <point x="710" y="364"/>
      <point x="688" y="342"/>
    </contour>
    <contour>
      <point x="592" y="114" type="curve" smooth="yes"/>
      <point x="592" y="199"/>
      <point x="672" y="237"/>
      <point x="741" y="237" type="curve" smooth="yes"/>
      <point x="810" y="237"/>
      <point x="890" y="199"/>
      <point x="890" y="114" type="curve" smooth="yes"/>
      <point x="890" y="41"/>
      <point x="821" y="-9"/>
      <point x="741" y="-9" type="curve" smooth="yes"/>
      <point x="661" y="-9"/>
      <point x="592" y="41"/>
    </contour>
    <contour>
      <point x="677" y="126" type="curve" smooth="yes"/>
      <point x="677" y="84"/>
      <point x="707" y="62"/>
      <point x="741" y="62" type="curve" smooth="yes"/>
      <point x="775" y="62"/>
      <point x="805" y="84"/>
      <point x="805" y="126" type="curve" smooth="yes"/>
      <point x="805" y="162"/>
      <point x="775" y="189"/>
      <point x="741" y="189" type="curve" smooth="yes"/>
      <point x="707" y="189"/>
      <point x="677" y="162"/>
    </contour>
  </outline>
</glyph>
<glyph name="fiveeighths" format="2">
  <advance width="942"/>
  <unicode hex="215D"/>
  <outline>
    <contour>
      <point x="694" y="700" type="line"/>
      <point x="798" y="700" type="line"/>
      <point x="278" y="0" type="line"/>
      <point x="174" y="0" type="line"/>
    </contour>
    <contour>
      <point x="350" y="413" type="curve" smooth="yes"/>
      <point x="350" y="315"/>
      <point x="269" y="271"/>
      <point x="188" y="271" type="curve" smooth="yes"/>
      <point x="111" y="271"/>
      <point x="62" y="300"/>
      <point x="26" y="335" type="curve"/>
      <point x="66" y="403" type="line"/>
      <point x="95" y="372"/>
      <point x="136" y="350"/>
      <point x="172" y="350" type="curve" smooth="yes"/>
      <point x="226" y="350"/>
      <point x="257" y="375"/>
      <point x="257" y="421" type="curve" smooth="yes"/>
      <point x="257" y="467"/>
      <point x="217" y="491"/>
      <point x="172" y="491" type="curve" smooth="yes"/>
      <point x="137" y="491"/>
      <point x="101" y="485"/>
      <point x="58" y="461" type="curve"/>
      <point x="116" y="509" type="line"/>
      <point x="147" y="542"/>
      <point x="184" y="552"/>
      <point x="224" y="552" type="curve" smooth="yes"/>
      <point x="292" y="552"/>
      <point x="350" y="499"/>
    </contour>
    <contour>
      <point x="179" y="623" type="line"/>
      <point x="145" y="512" type="line"/>
      <point x="58" y="461" type="line"/>
      <point x="115" y="698" type="line"/>
      <point x="344" y="698" type="line"/>
      <point x="344" y="623" type="line"/>
    </contour>
    <contour>
      <point x="629" y="319" type="curve" smooth="yes"/>
      <point x="629" y="386"/>
      <point x="689" y="429"/>
      <point x="763" y="429" type="curve" smooth="yes"/>
      <point x="837" y="429"/>
      <point x="897" y="386"/>
      <point x="897" y="319" type="curve" smooth="yes"/>
      <point x="897" y="246"/>
      <point x="832" y="208"/>
      <point x="763" y="208" type="curve" smooth="yes"/>
      <point x="694" y="208"/>
      <point x="629" y="246"/>
    </contour>
    <contour>
      <point x="710" y="310" type="curve" smooth="yes"/>
      <point x="710" y="278"/>
      <point x="733" y="256"/>
      <point x="763" y="256" type="curve" smooth="yes"/>
      <point x="793" y="256"/>
      <point x="816" y="278"/>
      <point x="816" y="310" type="curve" smooth="yes"/>
      <point x="816" y="342"/>
      <point x="794" y="364"/>
      <point x="763" y="364" type="curve" smooth="yes"/>
      <point x="732" y="364"/>
      <point x="710" y="342"/>
    </contour>
    <contour>
      <point x="614" y="114" type="curve" smooth="yes"/>
      <point x="614" y="199"/>
      <point x="694" y="237"/>
      <point x="763" y="237" type="curve" smooth="yes"/>
      <point x="832" y="237"/>
      <point x="912" y="199"/>
      <point x="912" y="114" type="curve" smooth="yes"/>
      <point x="912" y="41"/>
      <point x="843" y="-9"/>
      <point x="763" y="-9" type="curve" smooth="yes"/>
      <point x="683" y="-9"/>
      <point x="614" y="41"/>
    </contour>
    <contour>
      <point x="699" y="126" type="curve" smooth="yes"/>
      <point x="699" y="84"/>
      <point x="729" y="62"/>
      <point x="763" y="62" type="curve" smooth="yes"/>
      <point x="797" y="62"/>
      <point x="827" y="84"/>
      <point x="827" y="126" type="curve" smooth="yes"/>
      <point x="827" y="162"/>
      <point x="797" y="189"/>
      <point x="763" y="189" type="curve" smooth="yes"/>
      <point x="729" y="189"/>
      <point x="699" y="162"/>
    </contour>
  </outline>
</glyph>
<glyph name="uniFF11" format="2">
  <advance width="614"/>
  <unicode hex="FF11"/>
  <outline>
    <contour>
      <point x="111" y="517" type="line"/>
      <point x="111" y="647" type="line"/>
      <point x="418" y="712" type="line"/>
      <point x="418" y="0" type="line"/>
      <point x="279" y="0" type="line"/>
      <point x="279" y="561" type="line"/>
    </contour>
  </outline>
</glyph>
<glyph name="uniFF12" format="2">
  <advance width="614"/>
  <unicode hex="FF12"/>
  <outline>
    <contour>
      <point x="17" y="0" type="line"/>
      <point x="334" y="332" type="line" smooth="yes"/>
      <point x="387" y="389"/>
      <point x="420" y="432"/>
      <point x="420" y="488" type="curve" smooth="yes"/>
      <point x="420" y="538"/>
      <point x="386" y="588"/>
      <point x="316" y="588" type="curve" smooth="yes"/>
      <point x="243" y="588"/>
      <point x="193" y="531"/>
      <point x="193" y="447" type="curve"/>
      <point x="53" y="447" type="line"/>
      <point x="53" y="596"/>
      <point x="148" y="713"/>
      <point x="319" y="713" type="curve" smooth="yes"/>
      <point x="486" y="713"/>
      <point x="567" y="596"/>
      <point x="567" y="491" type="curve" smooth="yes"/>
      <point x="567" y="417"/>
      <point x="528" y="356"/>
      <point x="469" y="303" type="curve" smooth="yes"/>
      <point x="287" y="132" type="line"/>
      <point x="580" y="132" type="line"/>
      <point x="580" y="0" type="line"/>
    </contour>
  </outline>
</glyph>
<glyph name="uniFF13" format="2">
  <advance width="614"/>
  <unicode hex="FF13"/>
  <outline>
    <contour>
      <point x="272" y="341" type="curve"/>
      <point x="272" y="410" type="line"/>
      <point x="353" y="410"/>
      <point x="405" y="457"/>
      <point x="405" y="512" type="curve" smooth="yes"/>
      <point x="405" y="561"/>
      <point x="376" y="595"/>
      <point x="318" y="595" type="curve" smooth="yes"/>
      <point x="262" y="595"/>
      <point x="218" y="556"/>
      <point x="218" y="504" type="curve"/>
      <point x="85" y="504" type="line"/>
      <point x="85" y="624"/>
      <point x="178" y="712"/>
      <point x="317" y="712" type="curve" smooth="yes"/>
      <point x="463" y="712"/>
      <point x="548" y="626"/>
      <point x="548" y="521" type="curve" smooth="yes"/>
      <point x="548" y="407"/>
      <point x="429" y="341"/>
    </contour>
    <contour>
      <point x="311" y="-14" type="curve" smooth="yes"/>
      <point x="152" y="-14"/>
      <point x="55" y="91"/>
      <point x="55" y="211" type="curve"/>
      <point x="198" y="211" type="line"/>
      <point x="198" y="143"/>
      <point x="250" y="105"/>
      <point x="315" y="105" type="curve" smooth="yes"/>
      <point x="380" y="105"/>
      <point x="425" y="139"/>
      <point x="425" y="204" type="curve" smooth="yes"/>
      <point x="425" y="271"/>
      <point x="371" y="312"/>
      <point x="272" y="312" type="curve"/>
      <point x="272" y="388" type="line"/>
      <point x="442" y="388"/>
      <point x="568" y="330"/>
      <point x="568" y="189" type="curve" smooth="yes"/>
      <point x="568" y="68"/>
      <point x="468" y="-14"/>
    </contour>
  </outline>
</glyph>
<glyph name="uniFF15" format="2">
  <advance width="614"/>
  <unicode hex="FF15"/>
  <outline>
    <contour>
      <point x="573" y="226" type="curve" smooth="yes"/>
      <point x="573" y="63"/>
      <point x="437" y="-12"/>
      <point x="302" y="-12" type="curve" smooth="yes"/>
      <point x="173" y="-12"/>
      <point x="90" y="38"/>
      <point x="31" y="96" type="curve"/>
      <point x="99" y="208" type="line"/>
      <point x="147" y="157"/>
      <point x="216" y="120"/>
      <point x="276" y="120" type="curve" smooth="yes"/>
      <point x="365" y="120"/>
      <point x="418" y="162"/>
      <point x="418" y="239" type="curve" smooth="yes"/>
      <point x="418" y="316"/>
      <point x="351" y="355"/>
      <point x="276" y="355" type="curve" smooth="yes"/>
      <point x="218" y="355"/>
      <point x="155" y="345"/>
      <point x="84" y="305" type="curve"/>
      <point x="181" y="384" type="line"/>
      <point x="231" y="438"/>
      <point x="293" y="457"/>
      <point x="361" y="457" type="curve" smooth="yes"/>
      <point x="475" y="457"/>
      <point x="573" y="369"/>
    </contour>
    <contour>
      <point x="286" y="575" type="line"/>
      <point x="230" y="391" type="line"/>
      <point x="84" y="305" type="line"/>
      <point x="180" y="700" type="line"/>
      <point x="562" y="700" type="line"/>
      <point x="562" y="575" type="line"/>
    </contour>
  </outline>
</glyph>
<glyph name="uniFF16" format="2">
  <advance width="614"/>
  <unicode hex="FF16"/>
  <outline>
    <contour>
      <point x="177" y="241" type="curve" smooth="yes"/>
      <point x="177" y="162"/>
      <point x="233" y="109"/>
      <point x="307" y="109" type="curve" smooth="yes"/>
      <point x="381" y="109"/>
      <point x="437" y="162"/>
      <point x="437" y="241" type="curve" smooth="yes"/>
      <point x="437" y="320"/>
      <point x="381" y="374"/>
      <point x="307" y="374" type="curve" smooth="yes"/>
      <point x="233" y="374"/>
      <point x="177" y="320"/>
    </contour>
    <contour>
      <point x="319" y="698" type="line"/>
      <point x="500" y="698" type="line"/>
      <point x="276" y="434" type="line"/>
      <point x="250" y="425" type="line"/>
      <point x="284" y="460"/>
      <point x="316" y="468"/>
      <point x="364" y="468" type="curve" smooth="yes"/>
      <point x="472" y="468"/>
      <point x="577" y="379"/>
      <point x="577" y="241" type="curve" smooth="yes"/>
      <point x="577" y="78"/>
      <point x="457" y="-14"/>
      <point x="307" y="-14" type="curve" smooth="yes"/>
      <point x="157" y="-14"/>
      <point x="36" y="78"/>
      <point x="36" y="241" type="curve" smooth="yes"/>
      <point x="36" y="311"/>
      <point x="66" y="370"/>
      <point x="106" y="420" type="curve" smooth="yes"/>
    </contour>
  </outline>
</glyph>
